<?xml version="1.0" encoding="utf-8"?>
<!-- Generator: Adobe Illustrator 19.2.0, SVG Export Plug-In . SVG Version: 6.00 Build 0)  -->
<svg version="1.1" id="Layer_1" xmlns="http://www.w3.org/2000/svg" xmlns:xlink="http://www.w3.org/1999/xlink" x="0px" y="0px"
	 width="61px" height="54.3px" viewBox="0 0 61 54.3" style="enable-background:new 0 0 61 54.3;" xml:space="preserve">
<style type="text/css">
	.st0{fill:none;stroke:#414142;}
	.st1{fill:#85BEAB;stroke:#414142;}
</style>
<path id="Rectangle-1355" class="st0" d="M0.5,35c0-2.3,1.9-4.1,4.2-4.1h51.6c2.3,0,4.2,1.9,4.2,4.1v0.5c0,2.3-1.9,3.9-4.2,3.7
	c0,0-17.3-2-25.8-2s-25.8,2-25.8,2c-2.3,0.3-4.2-1.4-4.2-3.7V35L0.5,35L0.5,35z"/>
<path id="Rectangle-1356" class="st0" d="M15.5,7.7c0.3-4,3.8-7.2,7.9-7.2h14.2c4.1,0,7.6,3.2,7.9,7.2l1.7,23.4H13.8L15.5,7.7
	L15.5,7.7L15.5,7.7z"/>
<ellipse id="Oval-1072" class="st1" cx="38.3" cy="48.3" rx="5.6" ry="5.5"/>
<ellipse id="Oval-1072_1_" class="st1" cx="22.7" cy="48.3" rx="5.6" ry="5.5"/>
<path id="Line" class="st0" d="M28.3,45.7h2.5"/>
</svg>
