<?xml version="1.0" encoding="utf-8"?>
<!-- Generator: Adobe Illustrator 19.2.0, SVG Export Plug-In . SVG Version: 6.00 Build 0)  -->
<svg version="1.1" id="Layer_1" xmlns="http://www.w3.org/2000/svg" xmlns:xlink="http://www.w3.org/1999/xlink" x="0px" y="0px"
	 width="438px" height="436px" viewBox="0 0 438 436" style="enable-background:new 0 0 438 436;" xml:space="preserve">
<style type="text/css">
	.st0{fill:none;stroke:#E6E7E7;stroke-width:2.058;}
	.st1{fill:#57585A;}
	.st2{fill:#82BDAA;}
	.st3{fill:#EC8F61;}
	.st4{fill:#E8C15D;}
	.st5{fill:#FEFEFE;}
	.st6{font-family:'Avenir-Medium';}
	.st7{font-size:7.686px;}
</style>
<title>Page 1</title>
<desc>Created with Sketch.</desc>
<g id="Welcome">
	<g id="Desktop-HD-Copy-14" transform="translate(-785.000000, -2000.000000)">
		<g id="Page-1" transform="translate(785.000000, 1999.000000)">
			<path id="Stroke-1" class="st0" d="M410.1,143.2l-129.3,49.4L410.1,143.2z M86.5,348.1L218.3,218H34.7L86.5,348.1z M24.3,141.5
				l62.2-54.1l51.8-59.5l79.9,7.8l78.3-7.8l53.3,57.8l60.2,55l-7.7,77.9l7.7,77.7l-62.4,51.8l-51.1,63.9l-78.3-10.5l-81.8,10.5
				L84,350.8l-57.8-48.9l6.2-81.9L24.3,141.5L24.3,141.5z M32.4,146.7l123.5,46L32.4,146.7z M143.2,40.9l48,115.4L143.2,40.9z
				 M296.6,31.7l-49.3,124.6L296.6,31.7z M280.7,243.3l121.6,51.1L280.7,243.3z M247.2,278.9l49.3,130.7L247.2,278.9z M191.2,279.7
				l-54.7,129.9L191.2,279.7z M30.1,301.9l129.3-58.6L30.1,301.9z M108.3,176.6l64.2-64.2h91.3l64.2,66.1l0.9,93l-64.2,60.9h-91.9
				l-62.1-64.6L108.3,176.6L108.3,176.6z M347.7,348.1L218.3,218v183.5L347.7,348.1z M218.3,35.7l45.4,76.8l84-23l-19.9,89.1
				l71.7,37.2l-71.7,52.1l18.8,76.1l-82.1-11.4l-43.8,69l-49.8-71.4l-81.6,16.4l18.8-78.7l-73.6-52.1l73.6-39.1L89.5,93.7
				L218.3,35.7z M218.3,35.7L89,91.5L34.7,218l51.8,130.1l131.8,53.4l129.4-53.4l54.7-131.8L347.3,85.7L218.3,35.7L218.3,35.7z
				 M218.3,35.7V218L89,91.5l83.4,21L218.3,35.7L218.3,35.7z M402.4,216.3L218.3,218l129-132.3L402.4,216.3z"/>
			<g id="Group-80" transform="translate(0.000000, 0.215000)">
				<path id="Fill-2" class="st1" d="M218.3,150.4c37.2,0,67.4,30.2,67.4,67.4c0,37.2-30.2,67.4-67.4,67.4
					c-37.2,0-67.4-30.2-67.4-67.4C150.9,180.6,181.1,150.4,218.3,150.4"/>
				<g id="Group-6" transform="translate(183.000000, 0.000000)">
					<path id="Fill-4" class="st2" d="M35.3,0.8C54.4,0.8,70,16.3,70,35.5c0,19.2-15.5,34.7-34.7,34.7c-19.2,0-34.7-15.5-34.7-34.7
						C0.6,16.3,16.1,0.8,35.3,0.8"/>
				</g>
				<g id="Group-9" transform="translate(183.000000, 366.000000)">
					<path id="Fill-7" class="st2" d="M35.3,0.6C54.4,0.6,70,16.2,70,35.3C70,54.5,54.4,70,35.3,70C16.1,70,0.6,54.5,0.6,35.3
						C0.6,16.2,16.1,0.6,35.3,0.6"/>
				</g>
				<path id="Fill-10" class="st2" d="M0,215.5c0-19.1,15.5-34.7,34.7-34.7c19.2,0,34.7,15.5,34.7,34.7c0,19.2-15.5,34.7-34.7,34.7
					C15.5,250.2,0,234.7,0,215.5"/>
				<path id="Fill-12" class="st2" d="M367.7,216.7c0-19.2,15.5-34.7,34.7-34.7c19.1,0,34.7,15.5,34.7,34.7
					c0,19.2-15.5,34.7-34.7,34.7C383.2,251.3,367.7,235.8,367.7,216.7"/>
				<path id="Fill-14" class="st2" d="M64.5,64.7c13.5-13.5,35.5-13.5,49,0c13.5,13.5,13.5,35.5,0,49c-13.5,13.5-35.5,13.5-49,0
					C50.9,100.2,50.9,78.2,64.5,64.7"/>
				<path id="Fill-16" class="st2" d="M323.2,323.4c13.5-13.5,35.5-13.5,49,0s13.5,35.5,0,49c-13.5,13.5-35.5,13.5-49,0
					C309.6,358.9,309.6,336.9,323.2,323.4"/>
				<path id="Fill-18" class="st2" d="M62,370.9c-13.5-13.5-13.5-35.5,0-49c13.5-13.5,35.5-13.5,49,0c13.5,13.5,13.5,35.5,0,49
					C97.5,384.4,75.5,384.4,62,370.9"/>
				<path id="Fill-20" class="st2" d="M322.8,111.7c-13.5-13.5-13.5-35.5,0-49c13.5-13.5,35.5-13.5,49,0c13.5,13.5,13.5,35.5,0,49
					C358.3,125.2,336.3,125.2,322.8,111.7"/>
				<path id="Fill-22" class="st3" d="M172.4,93.4c10.4,0,18.8,8.4,18.8,18.8s-8.4,18.8-18.8,18.8c-10.4,0-18.8-8.4-18.8-18.8
					S162.1,93.4,172.4,93.4"/>
				<path id="Fill-24" class="st3" d="M263.7,93.4c10.4,0,18.8,8.4,18.8,18.8s-8.4,18.8-18.8,18.8c-10.4,0-18.8-8.4-18.8-18.8
					S253.3,93.4,263.7,93.4"/>
				<path id="Fill-26" class="st3" d="M172.4,313c10.4,0,18.8,8.4,18.8,18.8c0,10.4-8.4,18.8-18.8,18.8c-10.4,0-18.8-8.4-18.8-18.8
					C153.6,321.4,162.1,313,172.4,313"/>
				<path id="Fill-28" class="st3" d="M263.7,313c10.4,0,18.8,8.4,18.8,18.8c0,10.4-8.4,18.8-18.8,18.8c-10.4,0-18.8-8.4-18.8-18.8
					C244.9,321.4,253.3,313,263.7,313"/>
				<path id="Fill-30" class="st3" d="M346.6,176.4c0,10.4-8.4,18.8-18.8,18.8c-10.4,0-18.8-8.4-18.8-18.8
					c0-10.4,8.4-18.8,18.8-18.8C338.2,157.6,346.6,166,346.6,176.4"/>
				<path id="Fill-32" class="st3" d="M346.6,267.7c0,10.4-8.4,18.8-18.8,18.8c-10.4,0-18.8-8.4-18.8-18.8
					c0-10.4,8.4-18.8,18.8-18.8C338.2,248.9,346.6,257.3,346.6,267.7"/>
				<path id="Fill-34" class="st3" d="M127.1,176.4c0,10.4-8.4,18.8-18.8,18.8s-18.8-8.4-18.8-18.8c0-10.4,8.4-18.8,18.8-18.8
					S127.1,166,127.1,176.4"/>
				<path id="Fill-36" class="st3" d="M127.1,267.7c0,10.4-8.4,18.8-18.8,18.8s-18.8-8.4-18.8-18.8c0-10.4,8.4-18.8,18.8-18.8
					S127.1,257.3,127.1,267.7"/>
				<path id="Fill-38" class="st4" d="M136.5,13c8.1,0,14.7,6.6,14.7,14.7s-6.6,14.7-14.7,14.7c-8.1,0-14.7-6.6-14.7-14.7
					S128.4,13,136.5,13"/>
				<path id="Fill-40" class="st4" d="M296.6,13c8.1,0,14.7,6.6,14.7,14.7s-6.6,14.7-14.7,14.7c-8.1,0-14.7-6.6-14.7-14.7
					S288.5,13,296.6,13"/>
				<path id="Fill-42" class="st4" d="M136.5,394.7c8.1,0,14.7,6.6,14.7,14.7c0,8.1-6.6,14.7-14.7,14.7c-8.1,0-14.7-6.6-14.7-14.7
					C121.8,401.3,128.4,394.7,136.5,394.7"/>
				<path id="Fill-44" class="st4" d="M296.6,394.7c8.1,0,14.7,6.6,14.7,14.7c0,8.1-6.6,14.7-14.7,14.7c-8.1,0-14.7-6.6-14.7-14.7
					C281.9,401.3,288.5,394.7,296.6,394.7"/>
				<path id="Fill-46" class="st4" d="M26.1,287c8.1,0,14.7,6.6,14.7,14.7c0,8.1-6.6,14.7-14.7,14.7c-8.1,0-14.7-6.6-14.7-14.7
					C11.5,293.6,18,287,26.1,287"/>
				<path id="Fill-48" class="st4" d="M24.3,125.8c8.1,0,14.7,6.6,14.7,14.7c0,8.1-6.6,14.7-14.7,14.7c-8.1,0-14.7-6.6-14.7-14.7
					C9.6,132.4,16.2,125.8,24.3,125.8"/>
				<path id="Fill-50" class="st4" d="M410.1,279.5c8.1,0,14.7,6.6,14.7,14.7s-6.6,14.7-14.7,14.7c-8.1,0-14.7-6.6-14.7-14.7
					S402,279.5,410.1,279.5"/>
				<path id="Fill-52" class="st4" d="M410.1,125.8c8.1,0,14.7,6.6,14.7,14.7c0,8.1-6.6,14.7-14.7,14.7c-8.1,0-14.7-6.6-14.7-14.7
					C395.4,132.4,402,125.8,410.1,125.8"/>
				<path id="Fill-54" class="st5" d="M271.2,213.8c-0.2-0.3-0.4-0.6-0.8-0.8c-0.3-0.2-0.7-0.3-1-0.3c-0.4,0-0.7,0.1-1,0.3
					c-0.3,0.2-0.6,0.4-0.8,0.8c-0.2,0.3-0.3,0.7-0.3,1c0,0.4,0.1,0.7,0.3,1c0.2,0.3,0.4,0.6,0.8,0.8s0.7,0.3,1,0.3s0.7-0.1,1-0.3
					c0.3-0.2,0.6-0.4,0.8-0.8c0.2-0.3,0.3-0.7,0.3-1C271.5,214.5,271.4,214.2,271.2,213.8 M270.9,215.7c-0.1,0.3-0.3,0.5-0.6,0.6
					c-0.3,0.1-0.5,0.2-0.8,0.2c-0.3,0-0.6-0.1-0.8-0.2c-0.3-0.1-0.5-0.3-0.6-0.6c-0.1-0.3-0.2-0.5-0.2-0.8c0-0.3,0.1-0.6,0.2-0.8
					c0.1-0.3,0.4-0.5,0.6-0.6c0.3-0.1,0.5-0.2,0.8-0.2c0.3,0,0.6,0.1,0.8,0.2c0.3,0.1,0.5,0.3,0.6,0.6c0.1,0.3,0.2,0.5,0.2,0.8
					C271.1,215.2,271,215.4,270.9,215.7"/>
				<path id="Fill-56" class="st5" d="M270,215.3c-0.1-0.1-0.1-0.1-0.1-0.2c0,0-0.1-0.1-0.2-0.1c0.2,0,0.3-0.1,0.4-0.2
					c0.1-0.1,0.2-0.2,0.2-0.4c0-0.1,0-0.2-0.1-0.3c-0.1-0.1-0.1-0.2-0.2-0.2c-0.1,0-0.2-0.1-0.3-0.1c0,0-0.3,0-0.7,0h-0.4v2.2h0.4
					v-0.9h0.1c0.1,0,0.2,0,0.3,0.1c0.1,0.1,0.2,0.2,0.3,0.4l0.2,0.4h0.5l-0.3-0.4C270.1,215.4,270,215.3,270,215.3 M269.6,214.7
					c-0.1,0-0.2,0-0.5,0H269v-0.6h0.2c0.3,0,0.4,0,0.5,0s0.1,0.1,0.1,0.1c0,0,0.1,0.1,0.1,0.2c0,0.1,0,0.1-0.1,0.2
					C269.7,214.7,269.7,214.7,269.6,214.7"/>
				<path id="Fill-58" class="st5" d="M184.7,220.9c0-0.3-0.1-0.4-0.4-0.4H184c0,1.6-2.6,3.8-4.5,3.8c-0.9,0-1.7-0.5-2-1.7
					c0-0.1,0-0.4,0.6-0.7l0.4-0.2c1.2-0.6,3.9-2.1,3.9-5.1c0-1.6-1.5-2.1-2.6-2.1c-2.8,0-4.6,3.4-4.6,5.9c0,0.1,0,0.2,0,0.2
					c-0.4,0.1-0.9,0.2-1.3,0.2h-0.1c-0.5-1.1-2-2.2-3.1-2.2c-0.4,0-0.8,0.1-1,0.5c-0.1,0.2-0.1,0.4-0.1,0.7c0,1.4,2.1,2.2,3.3,2.5
					c0.1,0.4,0.2,0.8,0.2,1.2c0,1.5-0.8,2.7-3,2.7c-1.7,0-2.3-1.1-2.3-2.7c0-3.5,3-9.7,4.7-13.2c0.1-0.2,0.2-0.4,0.3-0.5
					c0.1-0.2,0.1-0.4,0.1-0.6c0-0.1,0-0.2,0-0.3c0-0.3-0.2-0.5-0.5-0.7c-0.2-0.1-0.4-0.2-0.6-0.2c-0.1,0-0.2,0-0.2,0
					c-0.3,0.1-0.6,0.3-0.7,0.5c-2.3,4.3-3.9,8.9-4.3,13.8c0,0.2,0,0.4,0,0.6c0,2.3,1.1,5,3.7,5c2.5,0,4.2-2.5,4.2-4.8
					c0-0.3,0-0.5-0.1-0.8c0.5,0,1-0.1,1.4-0.1c0.6,1.8,1.9,3.5,3.8,3.5C181.6,225.6,184.7,223.3,184.7,220.9 M170.6,219.8
					c0.5,0.1,1,0.4,1.4,0.9C171.4,220.5,171,220.2,170.6,219.8 M179.5,215.7c0.5,0,0.5,0.3,0.5,0.8c0,3-2.1,3.6-2.8,4.1
					C177.2,219.7,177.7,215.7,179.5,215.7"/>
				<path id="Fill-60" class="st5" d="M194.4,220c0.4,0,0.7-0.2,0.8-0.5c0.2-0.3,0.2-0.6,0.2-1c0-1.3-1-2.6-2.4-2.6
					c-0.2,0-0.4,0-0.7,0.1c-2.5,0.8-3.7,3.6-3.8,6v0.2c0,2.1,1.6,3.7,3.6,3.9c0.2,0,0.4,0,0.5,0c1.9,0,3.7-1.1,4.9-2.5
					c0.1,0.5,0.3,1,0.6,1.4c0.6,0.7,1.3,1,2.1,1c1.3,0,2.7-0.9,3.4-1.9c1-1.4,1.8-3.2,1.8-4.9c0-0.9-0.2-1.8-0.7-2.7
					c0-0.1-0.2-0.1-0.3-0.1c-0.3,0-0.7,0.3-0.7,0.5c0.2,0.5,0.3,1.1,0.3,1.8c0,2.5-1.5,5.7-3.6,5.7c-0.9,0-1.3-0.7-1.3-1.6
					c0-1.9,1.7-5.1,3.5-5.9c0.6-0.2,0.6-0.8,0.6-1.2c0-0.5-0.2-0.9-0.8-0.9c-0.1,0-0.2,0-0.3,0c-2.9,1-4.7,4-4.7,6.9c0,0,0,0,0,0
					c-1,1.3-2.5,2.5-4.1,2.7h-0.4c-1.7,0-2.4-1.2-2.4-2.6c0-1.6,0.9-3.4,2.3-3.9c0,0,0.1,0,0.2,0c0.1,0,0.3,0,0.3,0.2
					c0,0.2-0.1,0.5-0.1,0.6C193,219.6,193.8,220,194.4,220"/>
				<path id="Fill-62" class="st5" d="M258.4,216.7c0-0.3-0.2-0.5-0.4-0.5c-0.1,0-0.5,0-0.6,0.2c-1.5,2.3-1.9,5.3-3.5,7.7
					c-0.1,0.1-0.3,0.3-0.4,0.3c0,0-0.1,0-0.1-0.2c-0.8-2.4-0.6-5.1-1.5-7.4c-0.1-0.3-0.4-0.4-0.6-0.4c-0.6,0-1.3,0.6-1.4,1.1
					c0.4,0.8,0.7,1.8,0.9,2.9c0,0,0,0-0.1,0l-0.1,0.1c-0.9,1.6-2.1,4.1-4.4,4.1c-0.6,0-0.8-0.3-0.8-0.9c0-1.5,1.1-3.8,1.4-5.2
					c0-0.3-0.4-0.6-0.9-0.8c-0.2-0.1-0.5-0.1-0.6-0.1c-0.3,0-0.5,0.1-0.6,0.3c-0.3,1-0.6,2.4-0.8,3.8c-0.7,1.3-1.9,2.5-3.5,2.5
					c-1.8,0-2.1-1.6-2.1-3.2c2.1-2.4,3-4.5,4.1-6.7c1.1-0.1,2.2-0.2,3.3-0.3c0,0.1,0,0.2,0,0.3c0,0.9,0.5,1.3,1.1,1.3
					c0.8,0,1.8-0.8,1.8-1.7v-0.3c0,0,0,0,0,0c0.3-0.1,0.4-0.4,0.4-0.7c0-0.5-0.2-1-0.4-1.3c-0.1-0.1-0.1-0.2-0.3-0.2
					c-1.8,0.4-3.3,0.6-5.1,0.8c0-0.2,0.1-0.5,0.1-0.7c0-1.4-0.5-3.2-1.9-3.5c-0.1,0-0.1,0-0.2,0c-2.5,0.2-3.9,3.1-4.3,5.2
					c-0.2,0-0.8,0.1-0.9,0.1c-0.2,0-0.2,0.3-0.2,0.6c0,0.1,0,0.4,0.1,0.5c0,0.1,0.5,0.1,0.9,0.2c0,0.8-0.1,1.9-0.1,3.1
					c0,1.3,0.1,2.7,0.3,3.9c-1,1.5-2.6,3-4.5,3.2h-0.4c-1.7,0-2.4-1.2-2.4-2.6c0-1.6,0.9-3.4,2.3-3.9c0,0,0.1,0,0.2,0
					c0.1,0,0.3,0,0.3,0.2c0,0.2-0.1,0.5-0.1,0.6c0,0.6,0.7,1.1,1.4,1.1c0.4,0,0.7-0.2,0.8-0.5c0.2-0.3,0.2-0.6,0.2-1
					c0-1.3-1-2.6-2.4-2.6c-0.2,0-0.4,0-0.7,0.1c-2.5,0.8-3.7,3.6-3.8,6v0.2c0,0,0,0.1,0,0.1c-0.8,1.4-2.7,2.7-4.2,2.7
					c-0.9,0-1.7-0.5-2-1.7c0-0.1,0-0.4,0.6-0.7l0.4-0.2c1.2-0.6,3.9-2.1,3.9-5.1c0-1.6-1.5-2.1-2.6-2.1c-2.8,0-4.6,3.4-4.6,5.9
					c0,0.2,0,0.4,0,0.6c-0.6,1-1.4,1.7-3.1,1.7c-1.2,0-1.7-2.3-1.8-3.6c2.5-3.4,5.5-7.6,5.5-12.1c0-2-0.8-3-1.8-3
					c-4.9,0-5.2,9.9-5.3,15c0,0.4,0.1,0.9,0.1,1.4c-0.7,1.2-1.4,2.2-3.4,2.2c-1.2,0-1.7-2.3-1.8-3.6c2.6-3.4,5.5-7.6,5.5-12.1
					c0-2-0.8-3-1.8-3c-4.9,0-5.2,9.9-5.3,15c0.1,2.1,0.5,5.6,3.2,5.6c1.5,0,2.9-1.2,3.9-2.5c0.4,1.4,1.2,2.5,2.7,2.5
					c1.3,0,2.7-1,3.6-2.1c0.6,1.7,1.9,3.2,3.8,3.2c1.6,0,3.7-1.1,4.7-2.6c0.6,1.3,1.8,2.2,3.3,2.4c0.2,0,0.4,0,0.5,0
					c2.1,0,4.1-1.4,5.4-3.1c0.5,1.5,1.4,2.6,2.9,2.6c1.7,0,2.9-0.4,3.7-1.1c0,1.2,0.5,2,1.6,2c3.1,0,5-2,6-4.2
					c0.5,2.2,1,4.1,2.2,4.1c0.8,0,1.6-0.4,2-1.2c1.5-2.8,2.1-5.6,3.1-8.3C258.4,216.9,258.4,216.8,258.4,216.7 M217.7,207
					c0.3,0,0.4,0.2,0.4,0.5c0,3-2.3,7-4,9.7C214.9,212.3,216.1,207,217.7,207 M211.1,207c0.3,0,0.4,0.2,0.4,0.5c0,3-2.3,7-4,9.7
					C208.3,212.3,209.5,207,211.1,207 M223.3,216.6c0.5,0,0.5,0.3,0.5,0.8c0,3-2.1,3.6-2.8,4.1C221,220.6,221.5,216.6,223.3,216.6
					 M240.6,210c0.3,0,0.4,0.1,0.4,0.5c0,0.6,0,1.5-0.3,2.2l-2.1,0.3C238.9,211.7,239.5,210,240.6,210 M237.9,218.8l0.2-4.2
					c0.5,0,1.3-0.1,1.8-0.2C239.5,215.1,238.3,218.3,237.9,218.8"/>
				<path id="Fill-64" class="st5" d="M267.5,221.4h-0.3c0,1.6-2.6,3.8-4.5,3.8c-0.9,0-1.7-0.5-2-1.7c0-0.1,0-0.4,0.6-0.7l0.4-0.2
					c1.2-0.6,3.9-2.1,3.9-5.1c0-1.6-1.5-2.1-2.6-2.1c-2.8,0-4.6,3.4-4.6,5.9c0,2.2,1.5,5.4,4.2,5.4c2.3,0,5.5-2.3,5.5-4.7
					C268,221.5,267.9,221.4,267.5,221.4 M262.7,216.6c0.5,0,0.5,0.3,0.5,0.8c0,3-2.1,3.6-2.8,4.1
					C260.5,220.6,260.9,216.6,262.7,216.6"/>
				<path id="Fill-66" class="st5" d="M417.7,202.4l-15.6-8.2l-15.1,8.2H417.7z M385.4,220.3h34v-1.2h-34V220.3z M391.8,215.7h1.1
					v-10h-1.1V215.7z M394,215.7h3.4v-10H394V215.7z M398.5,215.7h1.1v-10h-1.1V215.7z M400.7,215.7h3.4v-10h-3.4V215.7z
					 M405.2,215.7h1.1v-10h-1.1V215.7z M414,205.7v10h3.5c0.3,0,0.5,0.2,0.5,0.5v1.7h1.8c0.3,0,0.5,0.2,0.5,0.5v2.3
					c0,0.3-0.2,0.5-0.5,0.5h-35.1c-0.3,0-0.5-0.2-0.5-0.5v-2.3c0-0.3,0.2-0.5,0.5-0.5h1.8v-1.7c0-0.3,0.2-0.5,0.5-0.5h3.5v-10h-2.5
					c-0.3,0-0.5-0.2-0.5-0.5v-1.7h-2.8c-0.2,0-0.5-0.2-0.5-0.4c-0.1-0.2,0-0.5,0.3-0.6l17.2-9.4c0.2-0.1,0.4-0.1,0.5,0l17.8,9.4
					c0.2,0.1,0.3,0.4,0.3,0.6c-0.1,0.2-0.3,0.4-0.5,0.4h-2.8v1.7c0,0.3-0.2,0.5-0.5,0.5H414z M388.7,204.6H416v-1.2h-27.2V204.6z
					 M407.3,215.7h3.4v-10h-3.4V215.7z M387.7,218H417v-1.2h-29.2V218z M411.8,215.7h1.1v-10h-1.1V215.7z"/>
				<path id="Fill-68" class="st5" d="M354.5,348.5c-0.8,2.3-1.9,4.3-3.2,5.5c3.1-0.9,5.8-2.9,7.6-5.5H354.5z M343.7,354
					c-1.3-1.3-2.4-3.2-3.2-5.5h-4.5C337.9,351.1,340.6,353.1,343.7,354L343.7,354z M347.5,355.7c-8.3,0-15-6.7-15-15
					c0-8.3,6.7-15,15-15c8.3,0,15,6.7,15,15C362.5,348.9,355.8,355.7,347.5,355.7L347.5,355.7z M348.1,348.5v6c2.1-0.4,4-2.7,5.2-6
					H348.1z M347,354.5v-6h-5.2C343,351.8,344.9,354.1,347,354.5L347,354.5z M339.4,341.2h-5.7c0.1,2.2,0.7,4.2,1.7,6.1h4.8
					C339.7,345.5,339.4,343.4,339.4,341.2L339.4,341.2z M347,341.2h-6.4c0,2.2,0.4,4.2,0.9,6.1h5.5V341.2z M354.5,341.2h-6.4v6.1
					h5.5C354.2,345.5,354.5,343.4,354.5,341.2L354.5,341.2z M361.4,341.2h-5.7c0,2.2-0.3,4.2-0.8,6.1h4.8
					C360.7,345.5,361.3,343.4,361.4,341.2L361.4,341.2z M354.5,332.9h4.5c-1.8-2.6-4.5-4.6-7.6-5.5
					C352.7,328.6,353.8,330.5,354.5,332.9L354.5,332.9z M348.1,332.9h5.2c-1.2-3.3-3-5.6-5.2-6V332.9z M341.8,332.9h5.2v-6
					C344.9,327.2,343,329.6,341.8,332.9L341.8,332.9z M336.1,332.9h4.5c0.8-2.3,1.9-4.3,3.2-5.5
					C340.6,328.3,337.9,330.2,336.1,332.9L336.1,332.9z M340.2,334h-4.8c-1,1.8-1.6,3.9-1.7,6.1h5.7
					C339.4,337.9,339.7,335.9,340.2,334L340.2,334z M347,334h-5.5c-0.5,1.8-0.8,3.9-0.9,6.1h6.4V334z M353.6,334h-5.5v6.1h6.4
					C354.5,337.9,354.2,335.9,353.6,334L353.6,334z M359.7,334h-4.8c0.5,1.8,0.8,3.9,0.8,6.1h5.7C361.3,337.9,360.7,335.8,359.7,334
					L359.7,334z"/>
				<path id="Fill-70" class="st5" d="M350.9,70.6h-8c-0.2,0-0.3,0-0.5,0.1c-0.6,0.2-1,0.6-1.2,1.2c0,0.2-0.1,0.3-0.1,0.5v1.1v7
					c0,0.7,0.5,1.2,1.1,1.2c0.6,0,1.1-0.5,1.1-1.2v-4.1c0-0.1,0.1-0.3,0.2-0.4l1.9-1.9c0.1-0.1,0.2-0.2,0.4-0.2h3.3
					c0.1,0,0.3,0.1,0.4,0.2l6.3,6.3c0.6,0,1.1,0.2,1.4,0.6l0.2,0.2l2.1-2.1L350.9,70.6z M354.8,83.3l2.6,2.6c0.4,0.4,1,0.3,1.5-0.1
					c0.2-0.2,0.3-0.5,0.4-0.8c0-0.3-0.1-0.5-0.2-0.7l-2.6-2.6c-0.2-0.2-0.4-0.2-0.6-0.2c-0.3,0-0.6,0.1-0.8,0.4
					C354.5,82.3,354.5,82.9,354.8,83.3L354.8,83.3z M352.5,85.6l2.6,2.6c0.4,0.4,1,0.3,1.5-0.1c0.4-0.4,0.5-1.1,0.1-1.5l-2.6-2.6
					c-0.2-0.2-0.4-0.3-0.6-0.3c-0.3,0-0.6,0.1-0.8,0.4C352.2,84.6,352.1,85.3,352.5,85.6L352.5,85.6z M350.2,88l2.6,2.6
					c0.4,0.4,1,0.3,1.5-0.1c0.4-0.4,0.5-1.1,0.1-1.5l-2.6-2.6c-0.2-0.2-0.4-0.3-0.6-0.3c-0.3,0-0.6,0.1-0.8,0.4
					C349.8,86.9,349.8,87.6,350.2,88L350.2,88z M348.7,88.5c-0.3,0-0.6,0.1-0.8,0.4c-0.4,0.4-0.5,1.1-0.1,1.5l2.6,2.6
					c0.4,0.4,1,0.3,1.5-0.1c0.2-0.2,0.3-0.5,0.4-0.8c0-0.3-0.1-0.5-0.2-0.7l-2.6-2.6C349.2,88.6,349,88.5,348.7,88.5L348.7,88.5z
					 M351.9,70l8.3,8.3l3.1-3.1l-8.3-8.3L351.9,70z M344.5,90.3l-2.6,2.6c-0.2,0.2-0.3,0.4-0.2,0.7c0,0.3,0.1,0.6,0.4,0.8
					c0.4,0.4,1.1,0.5,1.5,0.1l2.6-2.6c0.2-0.2,0.3-0.4,0.2-0.7c0-0.3-0.1-0.6-0.4-0.8c-0.2-0.2-0.5-0.4-0.8-0.4
					C344.9,90,344.6,90.1,344.5,90.3L344.5,90.3z M342.1,87.9l-2.6,2.6c-0.4,0.4-0.3,1,0.1,1.5c0.4,0.4,1.1,0.5,1.5,0.1l2.6-2.6
					c0.4-0.4,0.3-1-0.1-1.5c-0.2-0.2-0.5-0.4-0.8-0.4C342.5,87.7,342.3,87.8,342.1,87.9L342.1,87.9z M336.4,87.4l2.6-2.6
					c0.2-0.2,0.3-0.4,0.2-0.7c0-0.3-0.1-0.6-0.4-0.8c-0.2-0.2-0.5-0.4-0.8-0.4c-0.2,0-0.5,0.1-0.6,0.3l-2.6,2.6
					c-0.2,0.2-0.3,0.4-0.2,0.7c0,0.3,0.1,0.6,0.4,0.8C335.4,87.7,336.1,87.8,336.4,87.4L336.4,87.4z M340.1,73v-0.7
					c0-1.1,0.7-2.1,1.6-2.6l-2.3-2.3l-8.3,8.3l3.1,3.1L340.1,73z M335,79.6l2.4,2.4c0.2-0.1,0.4-0.1,0.7-0.1c0.6,0,1.2,0.2,1.6,0.7
					c0.5,0.5,0.7,1.1,0.7,1.7c0.6,0,1.2,0.2,1.7,0.7c0.4,0.4,0.7,0.9,0.7,1.5c0,0.1,0,0.1,0,0.2c0.6,0,1.2,0.2,1.7,0.7
					c0.5,0.5,0.7,1.1,0.7,1.7c0.5,0,1,0.2,1.4,0.5c0.1-0.5,0.3-1,0.7-1.3c0.4-0.4,1-0.7,1.6-0.7c0.1-0.1,0.1-0.1,0.1-0.2
					c0-0.6,0.3-1.1,0.7-1.5c0.4-0.4,1-0.7,1.6-0.7c0-0.6,0.3-1.2,0.7-1.7c0.4-0.4,1-0.7,1.6-0.7c0.1-0.1,0.1-0.1,0.1-0.2
					c0-0.6,0.3-1.1,0.7-1.5c0.1-0.1,0.3-0.2,0.4-0.3l-5.7-5.7H346l-1.5,1.5v3.9c0,1.3-1,2.3-2.2,2.3c-1.2,0-2.2-1-2.2-2.3v-5.9
					L335,79.6z M338.1,91.1c-0.6,0-1.2-0.2-1.6-0.7c-0.5-0.5-0.7-1.1-0.7-1.7c-0.6,0-1.2-0.2-1.7-0.7c-0.9-0.9-0.9-2.2-0.1-3
					l2.4-2.4l-6.3-6.3c-0.3-0.3-0.3-0.9,0-1.2l8.7-8.7c0.2-0.2,0.4-0.2,0.6-0.2c0.2,0,0.4,0.1,0.6,0.2l3,3h7.9l3.5-3.5
					c0.3-0.3,0.9-0.3,1.2,0l8.7,8.7c0.1,0.2,0.2,0.4,0.2,0.6c0,0.2-0.1,0.4-0.2,0.6l-6.1,6.1l1.6,1.6c0.8,0.8,0.8,2.2-0.1,3
					c-0.4,0.4-1,0.7-1.6,0.7c0,0.6-0.3,1.2-0.7,1.7c-0.4,0.4-1,0.7-1.6,0.7c0,0.6-0.3,1.2-0.7,1.7c-0.4,0.4-1,0.7-1.6,0.7
					c0,0.6-0.3,1.2-0.7,1.7c-0.4,0.4-1,0.7-1.6,0.7c-0.5,0-1-0.2-1.4-0.6l-2.2-2.2c0,0.4-0.2,0.9-0.6,1.2l-2.6,2.6
					c-0.4,0.4-0.9,0.6-1.4,0.6c-0.6,0-1.2-0.2-1.6-0.7c-0.4-0.4-0.7-0.9-0.7-1.5c0-0.1,0-0.1,0-0.2c-0.6,0-1.2-0.2-1.7-0.7
					C338.4,92.3,338.2,91.7,338.1,91.1L338.1,91.1z M340.4,85.4c-0.2,0-0.5,0.1-0.6,0.3l-2.6,2.6c-0.4,0.4-0.3,1,0.1,1.5
					c0.4,0.4,1.1,0.5,1.5,0.1l2.6-2.6c0.2-0.2,0.3-0.4,0.2-0.7c0-0.3-0.1-0.6-0.4-0.8C341,85.5,340.7,85.4,340.4,85.4L340.4,85.4z"
					/>
				<path id="Fill-72" class="st5" d="M219.3,394.4h-2.6c-0.6,0-1.2-0.5-1.2-1.2v-1.9h-10.6v9.1c0,0.7,0.5,1.2,1.2,1.2h23.8
					c0.7,0,1.2-0.5,1.2-1.2v-9.1h-10.6l0,1.9C220.5,393.9,219.9,394.4,219.3,394.4L219.3,394.4z M216.6,391.3v1.9c0,0,0,0.1,0.1,0.1
					h2.6c0,0,0.1,0,0.1-0.1l0-1.9H216.6z M220.7,382v-1.7c0-0.3-0.2-0.5-0.5-0.5h-4.5c-0.3,0-0.5,0.2-0.5,0.5l0,1.7H220.7z
					 M206.1,383.1c-0.7,0-1.2,0.5-1.2,1.2v5.9h26.2v-5.9c0-0.7-0.5-1.2-1.2-1.2H206.1z M223.1,382v-1.7c0-1.6-1.3-2.8-2.8-2.8h-4.5
					c-1.6,0-2.8,1.3-2.8,2.8v1.7h1.2v-1.7c0-0.9,0.7-1.6,1.6-1.6h4.5c0.9,0,1.6,0.7,1.6,1.6v1.7H223.1z M211.8,382l0-1.7
					c0-2.2,1.8-3.9,3.9-3.9h4.5c2.2,0,3.9,1.8,3.9,3.9v1.7h5.7c1.3,0,2.3,1,2.3,2.3v16.1c0,1.3-1,2.3-2.3,2.3h-23.8
					c-1.3,0-2.3-1-2.3-2.3v-16.1c0-1.3,1-2.3,2.3-2.3H211.8z"/>
				<path id="Fill-74" class="st5" d="M104.5,331l-17.4-8.9c-0.1-0.1-0.2-0.1-0.3-0.1c-0.1,0-0.3,0-0.4,0.1L68.9,331c0,0,0,0,0,0
					c-0.1,0.1-0.2,0.1-0.3,0.3c-0.2,0.3-0.1,0.8,0.2,1c0,0,0,0,2.8,1.7v15.7c0,0.4,0.3,0.7,0.7,0.7c0.4,0,0.7-0.3,0.7-0.7v-14.8
					c0.8,0.5,1.8,1.1,2.9,1.8v5.7c0,0.1,0,0.2,0.1,0.3c0,0.1,0.1,0.3,0.3,0.4l9.9,7.6c0.1,0.1,0.3,0.2,0.5,0.2c0,0,0,0,0.1,0
					c0,0,0,0,0,0c0.2,0,0.3-0.1,0.5-0.2l9.9-7.5c0.1-0.1,0.2-0.2,0.2-0.3c0.1-0.1,0.1-0.3,0.1-0.4v-5.7l7.2-4.4l0-0.1
					c0.1-0.1,0.2-0.2,0.2-0.3C105.1,331.6,104.9,331.2,104.5,331L104.5,331z M86.8,341.5l-4.7-2.9c-3.9-2.4-9.1-5.5-11.3-6.9l16-8.2
					l16,8.2L86.8,341.5z M96,342.1l-9.2,7.1l-9.2-7.1v-4.4c1.1,0.7,2.4,1.4,3.8,2.3l5,3.1c0.1,0.1,0.3,0.1,0.4,0.1
					c0.1,0,0.2,0,0.3-0.1c0.1,0,0.2,0,0.2-0.1l8.7-5.3V342.1z"/>
				<path id="Fill-76" class="st5" d="M86.8,331.6c-0.9,0-1.6,0.4-1.6,1c0,0.5,0.7,1,1.6,1c0.9,0,1.6-0.4,1.6-1
					C88.3,332.1,87.6,331.6,86.8,331.6"/>
				<path id="Fill-78" class="st5" d="M91.4,92.3h9.9V81.5l-8.8-2.6c-0.2-0.1-0.4-0.3-0.4-0.5V71l-4.3-3.7L83.5,71v7.4
					c0,0.2-0.2,0.4-0.4,0.5l-8.8,2.6v10.7h9.9v-6c0-2,1.6-3.6,3.6-3.6c2,0,3.6,1.6,3.6,3.6V92.3z M89.5,64.2h-1.2v2.2l4.7,3.9
					c0.1,0.1,0.2,0.2,0.2,0.4V78l8.8,2.6c0.2,0.1,0.4,0.3,0.4,0.5v11.7c0,0.3-0.2,0.5-0.5,0.5H90.9c-0.3,0-0.5-0.2-0.5-0.5v-6.5
					c0-1.4-1.2-2.6-2.6-2.6c-1.4,0-2.6,1.2-2.6,2.6v6.5c0,0.3-0.2,0.5-0.5,0.5H73.8c-0.3,0-0.5-0.2-0.5-0.5V81.1
					c0-0.2,0.2-0.4,0.4-0.5l8.8-2.6v-7.3c0-0.2,0.1-0.3,0.2-0.4l4.7-3.9v-2.2h-1.2c-0.3,0-0.5-0.2-0.5-0.5c0-0.3,0.2-0.5,0.5-0.5
					h1.2v-1.3c0-0.3,0.2-0.5,0.5-0.5c0.3,0,0.5,0.2,0.5,0.5v1.3h1.2c0.3,0,0.5,0.2,0.5,0.5C90,63.9,89.8,64.2,89.5,64.2L89.5,64.2z
					 M87.8,76c-1.3,0-2.4-1.1-2.4-2.4s1.1-2.4,2.4-2.4c1.3,0,2.4,1.1,2.4,2.4S89.1,76,87.8,76L87.8,76z M87.8,72.2
					c-0.8,0-1.4,0.6-1.4,1.4c0,0.8,0.6,1.4,1.4,1.4c0.8,0,1.4-0.6,1.4-1.4C89.2,72.8,88.5,72.2,87.8,72.2L87.8,72.2z M80.7,88.8
					h-2.9c-0.3,0-0.5-0.2-0.5-0.5v-3c0-1.1,0.9-2,2-2s2,0.9,2,2v3C81.3,88.5,81,88.8,80.7,88.8L80.7,88.8z M78.4,87.7h1.9v-2.4
					c0-0.5-0.4-0.9-0.9-0.9c-0.5,0-0.9,0.4-0.9,0.9V87.7z M97.7,88.8h-2.9c-0.3,0-0.5-0.2-0.5-0.5v-3c0-1.1,0.9-2,2-2
					c1.1,0,2,0.9,2,2v3C98.3,88.5,98,88.8,97.7,88.8L97.7,88.8z M95.4,87.7h1.9v-2.4c0-0.5-0.4-0.9-0.9-0.9c-0.5,0-0.9,0.4-0.9,0.9
					V87.7z"/>
			</g>
			<text transform="matrix(1 0 0 1 16.4661 232.67)" class="st5 st6 st7">SCHOOL</text>
			<text transform="matrix(1 0 0 1 48.6397 232.67)" class="st5 st6 st7">S</text>
			<text transform="matrix(1 0 0 1 375.7635 231.571)" class="st5 st6 st7">GOVERNMENT</text>
			<text transform="matrix(1 0 0 1 72.4432 102.669)" class="st5 st6 st7">CHURCH</text>
			<text transform="matrix(1 0 0 1 72.9505 111.4541)" class="st5 st6 st7">GROUP</text>
			<text transform="matrix(1 0 0 1 100.0052 111.4541)" class="st5 st6 st7">S</text>
			<text transform="matrix(1 0 0 1 337.5718 105.9663)" class="st5 st6 st7">NFPs</text>
			<text transform="matrix(1 0 0 1 62.3746 361.6027)" class="st5 st6 st7">UNIVERSITIES</text>
			<text transform="matrix(1 0 0 1 206.2104 412.999)" class="st5 st6 st7">SMAL</text>
			<text transform="matrix(1 0 0 1 226.855 412.999)" class="st5 st6 st7">L</text>
			<text transform="matrix(1 0 0 1 200.5074 421.7841)" class="st5 st6 st7">BUSINESS</text>
			<text transform="matrix(1 0 0 1 326.3118 365.9914)" class="st5 st6 st7">ENTERPRISE</text>
			<g id="Group-85" transform="translate(20.000000, 8.215000)">
				<path id="Fill-81" class="st5" d="M24.7,203.9c-3.2-1.1-3-6.1-3-6.2l0-3.6c0-5.1-2.9-7.2-5.3-8c0-1.5-1.3-2.8-2.8-2.8
					c-1.5,0-2.8,1.2-2.8,2.8c-2.3,0.9-5.3,3-5.3,8v3.6l0,0c0,0.1,0.2,5.1-3,6.2c-2.4,0.8-2.4,2.2-2.4,2.3c0,1.6,2.2,2.5,2.4,2.6
					c0.4,0.1,3.4,1.3,8.2,1.6c0.3,1.3,1.5,2.3,2.9,2.3c1.4,0,2.6-1,2.9-2.3c4.8-0.4,7.8-1.5,8.2-1.6c0.2-0.1,2.4-1,2.4-2.6
					C27.1,206.1,27,204.7,24.7,203.9L24.7,203.9z M5.8,202.6c1.8,0.4,4.5,0.8,7.7,0.8c3.3,0,5.9-0.4,7.7-0.8
					c0.2,0.3,0.3,0.6,0.5,0.9c-2,0.5-4.8,0.9-8.3,0.9c-3.5,0-6.3-0.5-8.3-0.9C5.5,203.2,5.7,202.9,5.8,202.6L5.8,202.6z M13.6,184.7
					c0.6,0,1.2,0.4,1.4,1c-0.8-0.2-1.3-0.2-1.4-0.2l0,0l0,0c0,0-0.6,0-1.4,0.2C12.4,185.1,12.9,184.7,13.6,184.7L13.6,184.7z
					 M6.9,194.1c0-6.9,6.3-7.3,6.7-7.3c0.5,0,6.7,0.4,6.7,7.3v3.6c0,0.2-0.1,2.2,0.6,4.1c-1.7,0.4-4.3,0.7-7.4,0.7
					c-3.1,0-5.6-0.4-7.4-0.7c0.7-1.9,0.6-3.8,0.6-4.1V194.1z M13.6,211.4c-0.6,0-1.2-0.4-1.5-0.9c0.5,0,1,0,1.5,0c0.5,0,1,0,1.4,0
					C14.8,211.1,14.2,211.4,13.6,211.4L13.6,211.4z M24.2,207.6c-0.4,0.2-4.5,1.6-10.6,1.6c-6.2,0-10.2-1.5-10.6-1.6
					c-0.6-0.2-1.5-0.8-1.6-1.3c0-0.1,0.2-0.6,1.5-1.1c0.7-0.2,1.2-0.6,1.7-1c2,0.5,5.1,1.1,9,1.1c3.9,0,7-0.6,9-1.1
					c0.5,0.4,1,0.8,1.7,1c1.3,0.4,1.5,1,1.5,1.1C25.7,206.8,24.8,207.3,24.2,207.6L24.2,207.6z"/>
				<path id="Fill-83" class="st5" d="M209.4,22.2h-10.4v-2.6v-0.7l4.9-4.4h1.9c2.4,0,4.4-1.7,4.4-3.8c0-2-1.7-3.6-3.9-3.8
					c-0.4-2-2.2-3.6-4.3-3.6c-0.5,0-1.1,0.1-1.5,0.3c-1.1-1.7-3-2.8-5-2.8c-3.3,0-6,2.7-6,6c0,0.1,0,0.2,0,0.4
					c-1.6,0.6-2.7,2-2.7,3.5c0,2.1,2,3.8,4.4,3.8h1.9l4.9,4.4v0.7v2.6h-10.3c-0.3,0-0.6,0.3-0.6,0.6v2.8c0,0.3,0.3,0.6,0.6,0.6h1.1
					l2.7,5.7c0.1,0.2,0.3,0.3,0.5,0.3h13.3c0.2,0,0.4-0.1,0.5-0.3l2.7-5.7h1.1c0.3,0,0.6-0.3,0.6-0.6v-2.8
					C210.1,22.4,209.8,22.2,209.4,22.2L209.4,22.2z M199.1,17.2v-2.7h3.1L199.1,17.2z M188,10.6c0-1.1,0.9-2.2,2.3-2.5
					c0.3-0.1,0.5-0.4,0.5-0.7c0-0.2-0.1-0.5-0.1-0.7c0-2.6,2.1-4.8,4.8-4.8c1.8,0,3.4,1,4.2,2.6c0.1,0.1,0.2,0.3,0.4,0.3
					c0.2,0,0.3,0,0.5,0c0.5-0.3,1-0.4,1.5-0.4c1.7,0,3.1,1.3,3.2,3c0,0.3,0.3,0.6,0.6,0.6c1.8,0,3.2,1.2,3.2,2.6s-1.4,2.6-3.2,2.6
					h-14.7C189.4,13.2,188,12.1,188,10.6L188,10.6z M194.8,14.5h3.1v2.7L194.8,14.5z M204.8,31h-12.5l-2.3-4.8h17.1L204.8,31z
					 M188.2,24.9h20.7v-1.6h-20.7V24.9z"/>
			</g>
			<text transform="matrix(1 0 0 1 194.2676 49.1153)" class="st5 st6 st7">COMMUNITY</text>
			<text transform="matrix(1 0 0 1 202.8682 57.9004)" class="st5 st6 st7">GROUPS</text>
			<g id="Group-118" transform="translate(16.000000, 17.215000)">
				<path id="Fill-86" class="st5" d="M99,250.1c1.9-0.8,3.2-2.6,3.2-4.8c0-2.8-2.3-5.2-5.2-5.2c-1.9,0-3.6,1.1-4.5,2.6
					c-0.1,0-0.1,0-0.1,0c-0.1,0-0.2,0-0.3,0c-0.9-1.6-2.6-2.7-4.5-2.7c-2.8,0-5.2,2.3-5.2,5.2c0,2.2,1.3,4,3.2,4.8
					c-1.3,0.4-2.4,1-3.3,2c-1.4,1.5-2.2,3.5-2.2,5.9c0,0.1,0.1,0.3,0.2,0.4c0.1,0.1,0.2,0.2,0.4,0.2h4.5c-0.1,0.7-0.2,1.4-0.2,2.1
					c0,0.1,0.1,0.3,0.2,0.4c0.1,0.1,0.2,0.2,0.4,0.2h13.9c0.1,0,0.3-0.1,0.4-0.2c0.1-0.1,0.2-0.2,0.2-0.4c0-0.7-0.1-1.4-0.2-2.1h4.3
					c0.1,0,0.3-0.1,0.4-0.2c0.1-0.1,0.2-0.2,0.2-0.4c0-2.4-0.8-4.5-2.2-5.9C101.4,251.1,100.3,250.4,99,250.1 M87.5,241.2
					c1.1,0,2.1,0.5,2.9,1.2c0.2,0.2,0.3,0.4,0.5,0.6c-2.1,0.6-3.7,2.6-3.7,4.9c0,0.5,0.1,1,0.2,1.4c-1.1,0-2.1-0.5-2.8-1.2
					c-0.7-0.7-1.2-1.8-1.2-2.9c0-1.1,0.5-2.1,1.2-2.9C85.4,241.7,86.4,241.2,87.5,241.2 M97,241.2c1.1,0,2.1,0.5,2.9,1.2
					c0.7,0.7,1.2,1.8,1.2,2.9c0,1.1-0.5,2.1-1.2,2.9c-0.7,0.7-1.6,1.1-2.6,1.2c0.1-0.5,0.2-0.9,0.2-1.4c0-2.4-1.6-4.4-3.8-5
					c0.1-0.2,0.3-0.4,0.5-0.5C94.9,241.7,95.9,241.2,97,241.2 M95.3,245c0.7,0.7,1.2,1.8,1.2,2.9c0,1.1-0.5,2.1-1.2,2.9
					s-1.8,1.2-2.9,1.2s-2.1-0.5-2.9-1.2c-0.7-0.7-1.2-1.8-1.2-2.9c0-1.1,0.5-2.1,1.2-2.9c0.7-0.7,1.8-1.2,2.9-1.2
					S94.5,244.3,95.3,245 M88.2,250.9c0.6,0.8,1.3,1.4,2.3,1.8c-1.3,0.4-2.4,1-3.3,2c-0.7,0.8-1.3,1.7-1.6,2.7h-4.3
					c0.1-1.9,0.8-3.5,1.9-4.7c1.2-1.2,2.7-2,4.5-2C87.8,250.9,88,250.9,88.2,250.9 M87.9,255.4c1.2-1.2,2.7-2,4.5-2
					c1.8,0,3.4,0.7,4.5,2c1.1,1.1,1.8,2.7,1.9,4.7H86C86.1,258.2,86.8,256.6,87.9,255.4 M97.7,254.7c-0.9-1-2.1-1.7-3.3-2
					c0.9-0.4,1.7-1,2.3-1.8c0.1,0,0.3,0,0.4,0c1.8,0,3.4,0.7,4.5,2c1.1,1.1,1.8,2.7,1.9,4.7h-4.1C98.9,256.4,98.4,255.5,97.7,254.7"
					/>
				<path id="Fill-88" class="st5" d="M99,158.8c1.9-0.8,3.2-2.6,3.2-4.8c0-2.8-2.3-5.2-5.2-5.2c-1.9,0-3.6,1.1-4.5,2.6
					c-0.1,0-0.1,0-0.1,0c-0.1,0-0.2,0-0.3,0c-0.9-1.6-2.6-2.7-4.5-2.7c-2.8,0-5.2,2.3-5.2,5.2c0,2.2,1.3,4,3.2,4.8
					c-1.3,0.4-2.4,1-3.3,2c-1.4,1.5-2.2,3.5-2.2,5.9c0,0.1,0.1,0.3,0.2,0.4c0.1,0.1,0.2,0.2,0.4,0.2h4.5c-0.1,0.7-0.2,1.4-0.2,2.1
					c0,0.1,0.1,0.3,0.2,0.4c0.1,0.1,0.2,0.2,0.4,0.2h13.9c0.1,0,0.3-0.1,0.4-0.2c0.1-0.1,0.2-0.2,0.2-0.4c0-0.7-0.1-1.4-0.2-2.1h4.3
					c0.1,0,0.3-0.1,0.4-0.2c0.1-0.1,0.2-0.2,0.2-0.4c0-2.4-0.8-4.5-2.2-5.9C101.4,159.8,100.3,159.2,99,158.8 M87.5,150
					c1.1,0,2.1,0.5,2.9,1.2c0.2,0.2,0.3,0.4,0.5,0.6c-2.1,0.6-3.7,2.6-3.7,4.9c0,0.5,0.1,1,0.2,1.4c-1.1,0-2.1-0.5-2.8-1.2
					c-0.7-0.7-1.2-1.8-1.2-2.9c0-1.1,0.5-2.1,1.2-2.9C85.4,150.4,86.4,150,87.5,150 M97,150c1.1,0,2.1,0.5,2.9,1.2
					c0.7,0.7,1.2,1.8,1.2,2.9c0,1.1-0.5,2.1-1.2,2.9c-0.7,0.7-1.6,1.1-2.6,1.2c0.1-0.5,0.2-0.9,0.2-1.4c0-2.4-1.6-4.4-3.8-5
					c0.1-0.2,0.3-0.4,0.5-0.5C94.9,150.4,95.9,150,97,150 M95.3,153.8c0.7,0.7,1.2,1.8,1.2,2.9c0,1.1-0.5,2.1-1.2,2.9
					c-0.7,0.7-1.8,1.2-2.9,1.2s-2.1-0.5-2.9-1.2c-0.7-0.7-1.2-1.8-1.2-2.9c0-1.1,0.5-2.1,1.2-2.9c0.7-0.7,1.8-1.2,2.9-1.2
					S94.5,153,95.3,153.8 M88.2,159.6c0.6,0.8,1.3,1.4,2.3,1.8c-1.3,0.4-2.4,1-3.3,2c-0.7,0.8-1.3,1.7-1.6,2.7h-4.3
					c0.1-1.9,0.8-3.5,1.9-4.7c1.2-1.2,2.7-2,4.5-2C87.8,159.6,88,159.6,88.2,159.6 M87.9,164.2c1.2-1.2,2.7-2,4.5-2
					c1.8,0,3.4,0.7,4.5,2c1.1,1.1,1.8,2.7,1.9,4.7H86C86.1,166.9,86.8,165.3,87.9,164.2 M97.7,163.5c-0.9-1-2.1-1.7-3.3-2
					c0.9-0.4,1.7-1,2.3-1.8c0.1,0,0.3,0,0.4,0c1.8,0,3.4,0.7,4.5,2c1.1,1.1,1.8,2.7,1.9,4.7h-4.1C98.9,165.1,98.4,164.2,97.7,163.5"
					/>
				<path id="Fill-90" class="st5" d="M163.1,94.6c1.9-0.8,3.2-2.6,3.2-4.8c0-2.8-2.3-5.2-5.2-5.2c-1.9,0-3.6,1.1-4.5,2.6
					c-0.1,0-0.1,0-0.1,0c-0.1,0-0.2,0-0.3,0c-0.9-1.6-2.6-2.7-4.5-2.7c-2.8,0-5.2,2.3-5.2,5.2c0,2.2,1.3,4,3.2,4.8
					c-1.3,0.4-2.4,1-3.3,2c-1.4,1.5-2.2,3.5-2.2,5.9c0,0.1,0.1,0.3,0.2,0.4c0.1,0.1,0.2,0.2,0.4,0.2h4.5c-0.1,0.7-0.2,1.4-0.2,2.1
					c0,0.1,0.1,0.3,0.2,0.4c0.1,0.1,0.2,0.2,0.4,0.2h13.9c0.1,0,0.3-0.1,0.4-0.2c0.1-0.1,0.2-0.2,0.2-0.4c0-0.7-0.1-1.4-0.2-2.1h4.3
					c0.1,0,0.3-0.1,0.4-0.2c0.1-0.1,0.2-0.2,0.2-0.4c0-2.4-0.8-4.5-2.2-5.9C165.6,95.7,164.4,95,163.1,94.6 M151.7,85.8
					c1.1,0,2.1,0.5,2.9,1.2c0.2,0.2,0.3,0.4,0.5,0.6c-2.1,0.6-3.7,2.6-3.7,4.9c0,0.5,0.1,1,0.2,1.4c-1.1,0-2.1-0.5-2.8-1.2
					c-0.7-0.7-1.2-1.8-1.2-2.9c0-1.1,0.5-2.1,1.2-2.9C149.6,86.3,150.6,85.8,151.7,85.8 M161.2,85.8c1.1,0,2.1,0.5,2.9,1.2
					c0.7,0.7,1.2,1.8,1.2,2.9c0,1.1-0.5,2.1-1.2,2.9c-0.7,0.7-1.6,1.1-2.6,1.2c0.1-0.5,0.2-0.9,0.2-1.4c0-2.4-1.6-4.4-3.8-5
					c0.1-0.2,0.3-0.4,0.5-0.5C159,86.3,160.1,85.8,161.2,85.8 M159.4,89.6c0.7,0.7,1.2,1.8,1.2,2.9c0,1.1-0.5,2.1-1.2,2.9
					c-0.7,0.7-1.8,1.2-2.9,1.2c-1.1,0-2.1-0.5-2.9-1.2c-0.7-0.7-1.2-1.8-1.2-2.9c0-1.1,0.5-2.1,1.2-2.9c0.7-0.7,1.8-1.2,2.9-1.2
					C157.7,88.4,158.7,88.9,159.4,89.6 M152.3,95.5c0.6,0.8,1.3,1.4,2.3,1.8c-1.3,0.4-2.4,1-3.3,2c-0.7,0.8-1.3,1.7-1.6,2.7h-4.3
					c0.1-1.9,0.8-3.5,1.9-4.7c1.2-1.2,2.7-2,4.5-2C151.9,95.4,152.1,95.5,152.3,95.5 M152,100c1.2-1.2,2.7-2,4.5-2
					c1.8,0,3.4,0.7,4.5,2c1.1,1.1,1.8,2.7,1.9,4.7h-12.8C150.3,102.8,151,101.2,152,100 M161.8,99.3c-0.9-1-2.1-1.7-3.3-2
					c0.9-0.4,1.7-1,2.3-1.8c0.1,0,0.3,0,0.4,0c1.8,0,3.4,0.7,4.5,2c1.1,1.1,1.8,2.7,1.9,4.7h-4.1C163.1,101,162.5,100.1,161.8,99.3"
					/>
				<path id="Fill-92" class="st5" d="M254.4,94.6c1.9-0.8,3.2-2.6,3.2-4.8c0-2.8-2.3-5.2-5.2-5.2c-1.9,0-3.6,1.1-4.5,2.6
					c-0.1,0-0.1,0-0.1,0c-0.1,0-0.2,0-0.3,0c-0.9-1.6-2.6-2.7-4.5-2.7c-2.8,0-5.2,2.3-5.2,5.2c0,2.2,1.3,4,3.2,4.8
					c-1.3,0.4-2.4,1-3.3,2c-1.4,1.5-2.2,3.5-2.2,5.9c0,0.1,0.1,0.3,0.2,0.4c0.1,0.1,0.2,0.2,0.4,0.2h4.5c-0.1,0.7-0.2,1.4-0.2,2.1
					c0,0.1,0.1,0.3,0.2,0.4c0.1,0.1,0.2,0.2,0.4,0.2h13.9c0.1,0,0.3-0.1,0.4-0.2c0.1-0.1,0.2-0.2,0.2-0.4c0-0.7-0.1-1.4-0.2-2.1h4.3
					c0.1,0,0.3-0.1,0.4-0.2c0.1-0.1,0.2-0.2,0.2-0.4c0-2.4-0.8-4.5-2.2-5.9C256.8,95.7,255.7,95,254.4,94.6 M243,85.8
					c1.1,0,2.1,0.5,2.9,1.2c0.2,0.2,0.3,0.4,0.5,0.6c-2.1,0.6-3.7,2.6-3.7,4.9c0,0.5,0.1,1,0.2,1.4c-1.1,0-2.1-0.5-2.8-1.2
					c-0.7-0.7-1.2-1.8-1.2-2.9c0-1.1,0.5-2.1,1.2-2.9C240.8,86.3,241.8,85.8,243,85.8 M252.4,85.8c1.1,0,2.1,0.5,2.9,1.2
					c0.7,0.7,1.2,1.8,1.2,2.9c0,1.1-0.5,2.1-1.2,2.9c-0.7,0.7-1.6,1.1-2.6,1.2c0.1-0.5,0.2-0.9,0.2-1.4c0-2.4-1.6-4.4-3.8-5
					c0.1-0.2,0.3-0.4,0.5-0.5C250.3,86.3,251.3,85.8,252.4,85.8 M250.7,89.6c0.7,0.7,1.2,1.8,1.2,2.9s-0.5,2.1-1.2,2.9
					c-0.7,0.7-1.8,1.2-2.9,1.2c-1.1,0-2.1-0.5-2.9-1.2c-0.7-0.7-1.2-1.8-1.2-2.9s0.5-2.1,1.2-2.9c0.7-0.7,1.8-1.2,2.9-1.2
					C248.9,88.4,249.9,88.9,250.7,89.6 M243.6,95.5c0.6,0.8,1.3,1.4,2.3,1.8c-1.3,0.4-2.4,1-3.3,2c-0.7,0.8-1.3,1.7-1.6,2.7h-4.3
					c0.1-1.9,0.8-3.5,1.9-4.7c1.2-1.2,2.7-2,4.5-2C243.2,95.4,243.4,95.5,243.6,95.5 M243.3,100c1.2-1.2,2.7-2,4.5-2
					c1.8,0,3.4,0.7,4.5,2c1.1,1.1,1.8,2.7,1.9,4.7h-12.8C241.5,102.8,242.2,101.2,243.3,100 M253.1,99.3c-0.9-1-2.1-1.7-3.3-2
					c0.9-0.4,1.7-1,2.3-1.8c0.1,0,0.3,0,0.4,0c1.8,0,3.4,0.7,4.5,2c1.1,1.1,1.8,2.7,1.9,4.7h-4.1C254.4,101,253.8,100.1,253.1,99.3"
					/>
				<path id="Fill-94" class="st5" d="M318.5,158.8c1.9-0.8,3.2-2.6,3.2-4.8c0-2.8-2.3-5.2-5.2-5.2c-1.9,0-3.6,1.1-4.5,2.6
					c0,0-0.1,0-0.1,0c-0.1,0-0.2,0-0.3,0c-0.9-1.6-2.6-2.7-4.5-2.7c-2.8,0-5.2,2.3-5.2,5.2c0,2.2,1.3,4,3.2,4.8
					c-1.3,0.4-2.4,1-3.3,2c-1.4,1.5-2.2,3.5-2.2,5.9c0,0.1,0.1,0.3,0.2,0.4c0.1,0.1,0.2,0.2,0.4,0.2h4.5c-0.1,0.7-0.2,1.4-0.2,2.1
					c0,0.1,0.1,0.3,0.2,0.4c0.1,0.1,0.2,0.2,0.4,0.2h13.9c0.1,0,0.3-0.1,0.4-0.2c0.1-0.1,0.2-0.2,0.2-0.4c0-0.7-0.1-1.4-0.2-2.1h4.3
					c0.1,0,0.3-0.1,0.4-0.2c0.1-0.1,0.2-0.2,0.2-0.4c0-2.4-0.8-4.5-2.2-5.9C321,159.8,319.8,159.2,318.5,158.8 M307.1,150
					c1.1,0,2.1,0.5,2.9,1.2c0.2,0.2,0.3,0.4,0.5,0.6c-2.1,0.6-3.7,2.6-3.7,4.9c0,0.5,0.1,1,0.2,1.4c-1.1,0-2.1-0.5-2.8-1.2
					c-0.7-0.7-1.2-1.8-1.2-2.9c0-1.1,0.5-2.1,1.2-2.9C305,150.4,306,150,307.1,150 M316.6,150c1.1,0,2.1,0.5,2.9,1.2
					c0.7,0.7,1.2,1.8,1.2,2.9c0,1.1-0.5,2.1-1.2,2.9c-0.7,0.7-1.6,1.1-2.6,1.2c0.1-0.5,0.2-0.9,0.2-1.4c0-2.4-1.6-4.4-3.8-5
					c0.1-0.2,0.3-0.4,0.5-0.5C314.4,150.4,315.5,150,316.6,150 M314.8,153.8c0.7,0.7,1.2,1.8,1.2,2.9c0,1.1-0.5,2.1-1.2,2.9
					c-0.7,0.7-1.8,1.2-2.9,1.2s-2.1-0.5-2.9-1.2c-0.7-0.7-1.2-1.8-1.2-2.9c0-1.1,0.5-2.1,1.2-2.9c0.7-0.7,1.8-1.2,2.9-1.2
					S314.1,153,314.8,153.8 M307.7,159.6c0.6,0.8,1.3,1.4,2.3,1.8c-1.3,0.4-2.4,1-3.3,2c-0.7,0.8-1.3,1.7-1.6,2.7h-4.3
					c0.1-1.9,0.8-3.5,1.9-4.7c1.2-1.2,2.7-2,4.5-2C307.3,159.6,307.5,159.6,307.7,159.6 M307.4,164.2c1.2-1.2,2.7-2,4.5-2
					c1.8,0,3.4,0.7,4.5,2c1.1,1.1,1.8,2.7,1.9,4.7h-12.8C305.7,166.9,306.4,165.3,307.4,164.2 M317.2,163.5c-0.9-1-2.1-1.7-3.3-2
					c0.9-0.4,1.7-1,2.3-1.8c0.1,0,0.3,0,0.4,0c1.8,0,3.4,0.7,4.5,2c1.1,1.1,1.8,2.7,1.9,4.7h-4.1C318.5,165.1,318,164.2,317.2,163.5
					"/>
				<path id="Fill-96" class="st5" d="M318.5,250.1c1.9-0.8,3.2-2.6,3.2-4.8c0-2.8-2.3-5.2-5.2-5.2c-1.9,0-3.6,1.1-4.5,2.6
					c0,0-0.1,0-0.1,0c-0.1,0-0.2,0-0.3,0c-0.9-1.6-2.6-2.7-4.5-2.7c-2.8,0-5.2,2.3-5.2,5.2c0,2.2,1.3,4,3.2,4.8
					c-1.3,0.4-2.4,1-3.3,2c-1.4,1.5-2.2,3.5-2.2,5.9c0,0.1,0.1,0.3,0.2,0.4c0.1,0.1,0.2,0.2,0.4,0.2h4.5c-0.1,0.7-0.2,1.4-0.2,2.1
					c0,0.1,0.1,0.3,0.2,0.4c0.1,0.1,0.2,0.2,0.4,0.2h13.9c0.1,0,0.3-0.1,0.4-0.2c0.1-0.1,0.2-0.2,0.2-0.4c0-0.7-0.1-1.4-0.2-2.1h4.3
					c0.1,0,0.3-0.1,0.4-0.2c0.1-0.1,0.2-0.2,0.2-0.4c0-2.4-0.8-4.5-2.2-5.9C321,251.1,319.8,250.4,318.5,250.1 M307.1,241.2
					c1.1,0,2.1,0.5,2.9,1.2c0.2,0.2,0.3,0.4,0.5,0.6c-2.1,0.6-3.7,2.6-3.7,4.9c0,0.5,0.1,1,0.2,1.4c-1.1,0-2.1-0.5-2.8-1.2
					c-0.7-0.7-1.2-1.8-1.2-2.9c0-1.1,0.5-2.1,1.2-2.9C305,241.7,306,241.2,307.1,241.2 M316.6,241.2c1.1,0,2.1,0.5,2.9,1.2
					c0.7,0.7,1.2,1.8,1.2,2.9c0,1.1-0.5,2.1-1.2,2.9c-0.7,0.7-1.6,1.1-2.6,1.2c0.1-0.5,0.2-0.9,0.2-1.4c0-2.4-1.6-4.4-3.8-5
					c0.1-0.2,0.3-0.4,0.5-0.5C314.4,241.7,315.5,241.2,316.6,241.2 M314.8,245c0.7,0.7,1.2,1.8,1.2,2.9c0,1.1-0.5,2.1-1.2,2.9
					c-0.7,0.7-1.8,1.2-2.9,1.2s-2.1-0.5-2.9-1.2c-0.7-0.7-1.2-1.8-1.2-2.9c0-1.1,0.5-2.1,1.2-2.9c0.7-0.7,1.8-1.2,2.9-1.2
					S314.1,244.3,314.8,245 M307.7,250.9c0.6,0.8,1.3,1.4,2.3,1.8c-1.3,0.4-2.4,1-3.3,2c-0.7,0.8-1.3,1.7-1.6,2.7h-4.3
					c0.1-1.9,0.8-3.5,1.9-4.7c1.2-1.2,2.7-2,4.5-2C307.3,250.9,307.5,250.9,307.7,250.9 M307.4,255.4c1.2-1.2,2.7-2,4.5-2
					c1.8,0,3.4,0.7,4.5,2c1.1,1.1,1.8,2.7,1.9,4.7h-12.8C305.7,258.2,306.4,256.6,307.4,255.4 M317.2,254.7c-0.9-1-2.1-1.7-3.3-2
					c0.9-0.4,1.7-1,2.3-1.8c0.1,0,0.3,0,0.4,0c1.8,0,3.4,0.7,4.5,2c1.1,1.1,1.8,2.7,1.9,4.7h-4.1C318.5,256.4,318,255.5,317.2,254.7
					"/>
				<path id="Fill-98" class="st5" d="M254.4,313.7c1.9-0.8,3.2-2.6,3.2-4.8c0-2.8-2.3-5.2-5.2-5.2c-1.9,0-3.6,1.1-4.5,2.6
					c-0.1,0-0.1,0-0.1,0c-0.1,0-0.2,0-0.3,0c-0.9-1.6-2.6-2.7-4.5-2.7c-2.8,0-5.2,2.3-5.2,5.2c0,2.2,1.3,4,3.2,4.8
					c-1.3,0.4-2.4,1-3.3,2c-1.4,1.5-2.2,3.5-2.2,5.9c0,0.1,0.1,0.3,0.2,0.4c0.1,0.1,0.2,0.2,0.4,0.2h4.5c-0.1,0.7-0.2,1.4-0.2,2.1
					c0,0.1,0.1,0.3,0.2,0.4c0.1,0.1,0.2,0.2,0.4,0.2h13.9c0.1,0,0.3-0.1,0.4-0.2c0.1-0.1,0.2-0.2,0.2-0.4c0-0.7-0.1-1.4-0.2-2.1h4.3
					c0.1,0,0.3-0.1,0.4-0.2c0.1-0.1,0.2-0.2,0.2-0.4c0-2.4-0.8-4.5-2.2-5.9C256.8,314.7,255.7,314,254.4,313.7 M243,304.8
					c1.1,0,2.1,0.5,2.9,1.2c0.2,0.2,0.3,0.4,0.5,0.6c-2.1,0.6-3.7,2.6-3.7,4.9c0,0.5,0.1,1,0.2,1.4c-1.1,0-2.1-0.5-2.8-1.2
					c-0.7-0.7-1.2-1.8-1.2-2.9c0-1.1,0.5-2.1,1.2-2.9C240.8,305.3,241.8,304.8,243,304.8 M252.4,304.8c1.1,0,2.1,0.5,2.9,1.2
					c0.7,0.7,1.2,1.8,1.2,2.9c0,1.1-0.5,2.1-1.2,2.9c-0.7,0.7-1.6,1.1-2.6,1.2c0.1-0.5,0.2-0.9,0.2-1.4c0-2.4-1.6-4.4-3.8-5
					c0.1-0.2,0.3-0.4,0.5-0.5C250.3,305.3,251.3,304.8,252.4,304.8 M250.7,308.6c0.7,0.7,1.2,1.8,1.2,2.9c0,1.1-0.5,2.1-1.2,2.9
					c-0.7,0.7-1.8,1.2-2.9,1.2c-1.1,0-2.1-0.5-2.9-1.2c-0.7-0.7-1.2-1.8-1.2-2.9c0-1.1,0.5-2.1,1.2-2.9c0.7-0.7,1.8-1.2,2.9-1.2
					C248.9,307.4,249.9,307.9,250.7,308.6 M243.6,314.5c0.6,0.8,1.3,1.4,2.3,1.8c-1.3,0.4-2.4,1-3.3,2c-0.7,0.8-1.3,1.7-1.6,2.7
					h-4.3c0.1-1.9,0.8-3.5,1.9-4.7c1.2-1.2,2.7-2,4.5-2C243.2,314.5,243.4,314.5,243.6,314.5 M243.3,319c1.2-1.2,2.7-2,4.5-2
					c1.8,0,3.4,0.7,4.5,2c1.1,1.1,1.8,2.7,1.9,4.7h-12.8C241.5,321.8,242.2,320.2,243.3,319 M253.1,318.3c-0.9-1-2.1-1.7-3.3-2
					c0.9-0.4,1.7-1,2.3-1.8c0.1,0,0.3,0,0.4,0c1.8,0,3.4,0.7,4.5,2c1.1,1.1,1.8,2.7,1.9,4.7h-4.1C254.4,320,253.8,319.1,253.1,318.3
					"/>
				<path id="Fill-100" class="st5" d="M163.1,313.7c1.9-0.8,3.2-2.6,3.2-4.8c0-2.8-2.3-5.2-5.2-5.2c-1.9,0-3.6,1.1-4.5,2.6
					c-0.1,0-0.1,0-0.1,0c-0.1,0-0.2,0-0.3,0c-0.9-1.6-2.6-2.7-4.5-2.7c-2.8,0-5.2,2.3-5.2,5.2c0,2.2,1.3,4,3.2,4.8
					c-1.3,0.4-2.4,1-3.3,2c-1.4,1.5-2.2,3.5-2.2,5.9c0,0.1,0.1,0.3,0.2,0.4c0.1,0.1,0.2,0.2,0.4,0.2h4.5c-0.1,0.7-0.2,1.4-0.2,2.1
					c0,0.1,0.1,0.3,0.2,0.4c0.1,0.1,0.2,0.2,0.4,0.2h13.9c0.1,0,0.3-0.1,0.4-0.2c0.1-0.1,0.2-0.2,0.2-0.4c0-0.7-0.1-1.4-0.2-2.1h4.3
					c0.1,0,0.3-0.1,0.4-0.2c0.1-0.1,0.2-0.2,0.2-0.4c0-2.4-0.8-4.5-2.2-5.9C165.6,314.7,164.4,314,163.1,313.7 M151.7,304.8
					c1.1,0,2.1,0.5,2.9,1.2c0.2,0.2,0.3,0.4,0.5,0.6c-2.1,0.6-3.7,2.6-3.7,4.9c0,0.5,0.1,1,0.2,1.4c-1.1,0-2.1-0.5-2.8-1.2
					c-0.7-0.7-1.2-1.8-1.2-2.9c0-1.1,0.5-2.1,1.2-2.9C149.6,305.3,150.6,304.8,151.7,304.8 M161.2,304.8c1.1,0,2.1,0.5,2.9,1.2
					c0.7,0.7,1.2,1.8,1.2,2.9c0,1.1-0.5,2.1-1.2,2.9c-0.7,0.7-1.6,1.1-2.6,1.2c0.1-0.5,0.2-0.9,0.2-1.4c0-2.4-1.6-4.4-3.8-5
					c0.1-0.2,0.3-0.4,0.5-0.5C159,305.3,160.1,304.8,161.2,304.8 M159.4,308.6c0.7,0.7,1.2,1.8,1.2,2.9c0,1.1-0.5,2.1-1.2,2.9
					c-0.7,0.7-1.8,1.2-2.9,1.2c-1.1,0-2.1-0.5-2.9-1.2c-0.7-0.7-1.2-1.8-1.2-2.9c0-1.1,0.5-2.1,1.2-2.9c0.7-0.7,1.8-1.2,2.9-1.2
					C157.7,307.4,158.7,307.9,159.4,308.6 M152.3,314.5c0.6,0.8,1.3,1.4,2.3,1.8c-1.3,0.4-2.4,1-3.3,2c-0.7,0.8-1.3,1.7-1.6,2.7
					h-4.3c0.1-1.9,0.8-3.5,1.9-4.7c1.2-1.2,2.7-2,4.5-2C151.9,314.5,152.1,314.5,152.3,314.5 M152,319c1.2-1.2,2.7-2,4.5-2
					c1.8,0,3.4,0.7,4.5,2c1.1,1.1,1.8,2.7,1.9,4.7h-12.8C150.3,321.8,151,320.2,152,319 M161.8,318.3c-0.9-1-2.1-1.7-3.3-2
					c0.9-0.4,1.7-1,2.3-1.8c0.1,0,0.3,0,0.4,0c1.8,0,3.4,0.7,4.5,2c1.1,1.1,1.8,2.7,1.9,4.7h-4.1C163.1,320,162.5,319.1,161.8,318.3
					"/>
				<path id="Fill-102" class="st5" d="M122.4,10.1c1.9-0.8,3.2-2.6,3.2-4.7c0-2.8-2.3-5.1-5.1-5.1s-5.1,2.3-5.1,5.1
					c0,2.1,1.3,3.9,3.2,4.7c-1.3,0.4-2.4,1-3.3,2c-1.3,1.4-2.2,3.5-2.2,5.9c0,0.1,0.1,0.3,0.2,0.4c0.1,0.1,0.2,0.2,0.4,0.2h13.7
					c0.1,0,0.3-0.1,0.4-0.2c0.1-0.1,0.2-0.2,0.2-0.4c0-2.4-0.8-4.4-2.2-5.9C124.9,11.1,123.7,10.4,122.4,10.1 M116.5,5.4
					c0-1.1,0.5-2.1,1.2-2.9c0.7-0.7,1.7-1.2,2.9-1.2c1.1,0,2.1,0.5,2.9,1.2c0.7,0.7,1.2,1.7,1.2,2.9c0,1.1-0.5,2.1-1.2,2.9
					c-0.7,0.7-1.7,1.2-2.9,1.2c-1.1,0-2.1-0.5-2.9-1.2C116.9,7.5,116.5,6.5,116.5,5.4 M116,12.8c1.1-1.2,2.7-1.9,4.5-1.9
					c1.8,0,3.3,0.7,4.5,1.9c1,1.1,1.7,2.7,1.8,4.6h-12.6C114.3,15.5,115,13.9,116,12.8"/>
				<path id="Fill-104" class="st5" d="M282.5,10.1c1.9-0.8,3.2-2.6,3.2-4.7c0-2.8-2.3-5.1-5.1-5.1c-2.8,0-5.1,2.3-5.1,5.1
					c0,2.1,1.3,3.9,3.2,4.7c-1.3,0.4-2.4,1-3.3,2c-1.3,1.4-2.2,3.5-2.2,5.9c0,0.1,0.1,0.3,0.2,0.4c0.1,0.1,0.2,0.2,0.4,0.2h13.7
					c0.1,0,0.3-0.1,0.4-0.2c0.1-0.1,0.2-0.2,0.2-0.4c0-2.4-0.8-4.4-2.2-5.9C284.9,11.1,283.8,10.4,282.5,10.1 M276.5,5.4
					c0-1.1,0.5-2.1,1.2-2.9c0.7-0.7,1.7-1.2,2.9-1.2c1.1,0,2.1,0.5,2.9,1.2c0.7,0.7,1.2,1.7,1.2,2.9c0,1.1-0.5,2.1-1.2,2.9
					c-0.7,0.7-1.7,1.2-2.9,1.2c-1.1,0-2.1-0.5-2.9-1.2C277,7.5,276.5,6.5,276.5,5.4 M276.1,12.8c1.1-1.2,2.7-1.9,4.5-1.9
					c1.8,0,3.3,0.7,4.5,1.9c1,1.1,1.7,2.7,1.8,4.6h-12.6C274.4,15.5,275,13.9,276.1,12.8"/>
				<path id="Fill-106" class="st5" d="M396,123.2c1.9-0.8,3.2-2.6,3.2-4.7c0-2.8-2.3-5.1-5.1-5.1c-2.8,0-5.1,2.3-5.1,5.1
					c0,2.1,1.3,3.9,3.2,4.7c-1.3,0.3-2.4,1-3.3,2c-1.3,1.4-2.2,3.5-2.2,5.9c0,0.1,0.1,0.3,0.2,0.4c0.1,0.1,0.2,0.2,0.4,0.2h13.7
					c0.1,0,0.3-0.1,0.4-0.2c0.1-0.1,0.2-0.2,0.2-0.4c0-2.4-0.8-4.4-2.2-5.9C398.4,124.2,397.3,123.5,396,123.2 M390,118.5
					c0-1.1,0.5-2.1,1.2-2.9c0.7-0.7,1.7-1.2,2.9-1.2s2.1,0.5,2.9,1.2c0.7,0.7,1.2,1.7,1.2,2.9c0,1.1-0.5,2.1-1.2,2.9
					c-0.7,0.7-1.7,1.2-2.9,1.2s-2.1-0.5-2.9-1.2C390.5,120.6,390,119.6,390,118.5 M389.6,125.9c1.1-1.2,2.7-1.9,4.5-1.9
					c1.8,0,3.3,0.7,4.5,1.9c1,1.1,1.7,2.7,1.8,4.6h-12.6C387.9,128.6,388.5,127,389.6,125.9"/>
				<path id="Fill-108" class="st5" d="M396,276.8c1.9-0.8,3.2-2.6,3.2-4.7c0-2.8-2.3-5.1-5.1-5.1c-2.8,0-5.1,2.3-5.1,5.1
					c0,2.1,1.3,4,3.2,4.7c-1.3,0.4-2.4,1-3.3,2c-1.3,1.4-2.2,3.5-2.2,5.9c0,0.1,0.1,0.3,0.2,0.4c0.1,0.1,0.2,0.2,0.4,0.2h13.7
					c0.1,0,0.3-0.1,0.4-0.2c0.1-0.1,0.2-0.2,0.2-0.4c0-2.4-0.8-4.4-2.2-5.9C398.4,277.8,397.3,277.1,396,276.8 M390,272.1
					c0-1.1,0.5-2.1,1.2-2.9c0.7-0.7,1.7-1.2,2.9-1.2s2.1,0.5,2.9,1.2c0.7,0.7,1.2,1.7,1.2,2.9c0,1.1-0.5,2.1-1.2,2.9
					c-0.7,0.7-1.7,1.2-2.9,1.2s-2.1-0.5-2.9-1.2C390.5,274.2,390,273.2,390,272.1 M389.6,279.5c1.1-1.2,2.7-1.9,4.5-1.9
					c1.8,0,3.3,0.7,4.5,1.9c1,1.1,1.7,2.7,1.8,4.6h-12.6C387.9,282.2,388.5,280.6,389.6,279.5"/>
				<path id="Fill-110" class="st5" d="M282.5,392.1c1.9-0.8,3.2-2.6,3.2-4.7c0-2.8-2.3-5.1-5.1-5.1c-2.8,0-5.1,2.3-5.1,5.1
					c0,2.1,1.3,4,3.2,4.7c-1.3,0.4-2.4,1-3.3,2c-1.3,1.4-2.2,3.5-2.2,5.9c0,0.1,0.1,0.3,0.2,0.4c0.1,0.1,0.2,0.2,0.4,0.2h13.7
					c0.1,0,0.3-0.1,0.4-0.2c0.1-0.1,0.2-0.2,0.2-0.4c0-2.4-0.8-4.4-2.2-5.9C284.9,393.1,283.8,392.5,282.5,392.1 M276.5,387.4
					c0-1.1,0.5-2.1,1.2-2.9c0.7-0.7,1.7-1.2,2.9-1.2c1.1,0,2.1,0.5,2.9,1.2c0.7,0.7,1.2,1.7,1.2,2.9c0,1.1-0.5,2.1-1.2,2.9
					c-0.7,0.7-1.7,1.2-2.9,1.2c-1.1,0-2.1-0.5-2.9-1.2C277,389.5,276.5,388.5,276.5,387.4 M276.1,394.8c1.1-1.2,2.7-1.9,4.5-1.9
					c1.8,0,3.3,0.7,4.5,1.9c1,1.1,1.7,2.7,1.8,4.6h-12.6C274.4,397.5,275,395.9,276.1,394.8"/>
				<path id="Fill-112" class="st5" d="M122.4,392.1c1.9-0.8,3.2-2.6,3.2-4.7c0-2.8-2.3-5.1-5.1-5.1s-5.1,2.3-5.1,5.1
					c0,2.1,1.3,4,3.2,4.7c-1.3,0.4-2.4,1-3.3,2c-1.3,1.4-2.2,3.5-2.2,5.9c0,0.1,0.1,0.3,0.2,0.4c0.1,0.1,0.2,0.2,0.4,0.2h13.7
					c0.1,0,0.3-0.1,0.4-0.2c0.1-0.1,0.2-0.2,0.2-0.4c0-2.4-0.8-4.4-2.2-5.9C124.9,393.1,123.7,392.5,122.4,392.1 M116.5,387.4
					c0-1.1,0.5-2.1,1.2-2.9c0.7-0.7,1.7-1.2,2.9-1.2c1.1,0,2.1,0.5,2.9,1.2c0.7,0.7,1.2,1.7,1.2,2.9c0,1.1-0.5,2.1-1.2,2.9
					c-0.7,0.7-1.7,1.2-2.9,1.2c-1.1,0-2.1-0.5-2.9-1.2C116.9,389.5,116.5,388.5,116.5,387.4 M116,394.8c1.1-1.2,2.7-1.9,4.5-1.9
					c1.8,0,3.3,0.7,4.5,1.9c1,1.1,1.7,2.7,1.8,4.6h-12.6C114.3,397.5,115,395.9,116,394.8"/>
				<path id="Fill-114" class="st5" d="M12.1,284.2c1.9-0.8,3.2-2.6,3.2-4.7c0-2.8-2.3-5.1-5.1-5.1S5,276.6,5,279.5
					c0,2.1,1.3,4,3.2,4.7c-1.3,0.4-2.4,1-3.3,2c-1.3,1.4-2.2,3.5-2.2,5.9c0,0.1,0.1,0.3,0.2,0.4c0.1,0.1,0.2,0.2,0.4,0.2H17
					c0.1,0,0.3-0.1,0.4-0.2c0.1-0.1,0.2-0.2,0.2-0.4c0-2.4-0.8-4.4-2.2-5.9C14.5,285.2,13.3,284.5,12.1,284.2 M6.1,279.5
					c0-1.1,0.5-2.1,1.2-2.9c0.7-0.7,1.7-1.2,2.9-1.2s2.1,0.5,2.9,1.2c0.7,0.7,1.2,1.7,1.2,2.9c0,1.1-0.5,2.1-1.2,2.9
					c-0.7,0.7-1.7,1.2-2.9,1.2S8,283,7.3,282.3C6.5,281.6,6.1,280.6,6.1,279.5 M5.7,286.9c1.1-1.2,2.7-1.9,4.5-1.9
					c1.8,0,3.3,0.7,4.5,1.9c1,1.1,1.7,2.7,1.8,4.6H3.8C3.9,289.6,4.6,288,5.7,286.9"/>
				<path id="Fill-116" class="st5" d="M10.2,123.1c1.9-0.8,3.2-2.6,3.2-4.7c0-2.8-2.3-5.1-5.1-5.1s-5.1,2.3-5.1,5.1
					c0,2.1,1.3,4,3.2,4.7c-1.3,0.3-2.4,1-3.3,2c-1.3,1.4-2.2,3.5-2.2,5.9c0,0.1,0.1,0.3,0.2,0.4c0.1,0.1,0.2,0.2,0.4,0.2h13.7
					c0.1,0,0.3-0.1,0.4-0.2c0.1-0.1,0.2-0.2,0.2-0.4c0-2.4-0.8-4.4-2.2-5.9C12.6,124.1,11.5,123.4,10.2,123.1 M4.2,118.4
					c0-1.1,0.5-2.1,1.2-2.9c0.7-0.7,1.7-1.2,2.9-1.2s2.1,0.5,2.9,1.2c0.7,0.7,1.2,1.7,1.2,2.9c0,1.1-0.5,2.1-1.2,2.9
					c-0.7,0.7-1.7,1.2-2.9,1.2s-2.1-0.5-2.9-1.2C4.7,120.5,4.2,119.5,4.2,118.4 M3.8,125.8c1.1-1.2,2.7-1.9,4.5-1.9
					c1.8,0,3.3,0.7,4.5,1.9c1,1.1,1.7,2.7,1.8,4.6H2C2.1,128.5,2.8,126.9,3.8,125.8"/>
			</g>
		</g>
	</g>
</g>
</svg>
