<?xml version="1.0" encoding="utf-8"?>
<!-- Generator: Adobe Illustrator 19.2.0, SVG Export Plug-In . SVG Version: 6.00 Build 0)  -->
<svg version="1.1" id="Layer_1" xmlns="http://www.w3.org/2000/svg" xmlns:xlink="http://www.w3.org/1999/xlink" x="0px" y="0px"
	 width="318px" height="291px" viewBox="0 0 318 291" style="enable-background:new 0 0 318 291;" xml:space="preserve">
<style type="text/css">
	.st0{fill:#333333;}
	.st1{fill:#EC9061;}
	.st2{fill:#83BDAA;}
	.st3{fill:#EAC25D;}
	.st4{fill:#EDE4D2;}
	.st5{fill:#EDE3D1;}
</style>
<title>1</title>
<desc>Created with Sketch.</desc>
<g id="Welcome">
	<g id="Desktop-HD-Copy-14" transform="translate(-311.000000, -3270.000000)">
		<g id="placeholder-digital-connectedness" transform="translate(311.000000, 3270.000000)">
			<g id="_x31__1_">
				<g id="Website">
					<g id="Why-Be-Collective_x3F__1_">
						<g id="Content">
							<g id="Why-Be-Collective_x3F_">
								<g id="Copy">
									<g id="_x31_">
										<path id="Shape" class="st0" d="M253.8,120.9c-16.9-27.2-45.2-46.5-78.2-51.4l-16.2-16.2l-16.2,16.2
											c-33,4.8-61.2,24.1-78.1,51.1l32.2,18c13.3-20.1,36.1-33.4,62.1-33.4s48.8,13.3,62.1,33.3L253.8,120.9L253.8,120.9
											L253.8,120.9z"/>
										<path id="Shape_1_" class="st0" d="M270.5,179.5c0-18.6-4.5-36.1-12.6-51.5l-32.4,17.5c5.2,10.2,8.2,21.7,8.2,33.9
											c0,40-31.5,72.6-71,74.3v36.8c33.9-1,64.1-17.2,83.8-42.1l22.2-6l-5.9-22.1C267.7,207.8,270.5,194.1,270.5,179.5
											L270.5,179.5L270.5,179.5z"/>
										<path id="Shape_2_" class="st0" d="M154.5,253.7c-38.8-2.5-69.6-34.8-69.6-74.2c0-12.2,3-23.7,8.2-33.8l-32.2-17.9
											c-8.2,15.5-12.8,33.1-12.8,51.8c0,14.5,2.8,28.3,7.8,41L50,242.6l22.2,6c19.5,24.5,49,40.6,82.3,42V253.7L154.5,253.7
											L154.5,253.7z"/>
										<g id="Group" transform="translate(129.127273, 84.794702)">
											<path id="Shape_3_" class="st1" d="M0.3,5.3l2.8-0.9c0.4-0.1,0.8-0.2,1.2-0.2s0.8,0,1.1,0.1C5.7,4.4,6,4.6,6.2,4.9
												C6.5,5.2,6.6,5.5,6.7,6c0.2,0.5,0.2,1,0.1,1.3S6.6,8,6.4,8.3C6.2,8.6,5.8,8.8,5.4,9C5,9.2,4.6,9.3,4.1,9.4L3.1,9.7
												l1.1,3.5l-1.4,0.5L0.3,5.3L0.3,5.3L0.3,5.3z M3.8,8.2C4,8.1,4.1,8.1,4.4,8C4.6,7.9,4.8,7.8,5,7.7
												c0.2-0.1,0.3-0.3,0.4-0.5c0.1-0.2,0.1-0.4,0-0.7C5.3,6.3,5.2,6.1,5,6C4.8,5.9,4.7,5.8,4.5,5.8H4C3.8,5.8,3.6,5.9,3.4,6
												L2.3,6.3L3,8.6L3.8,8.2L3.8,8.2L3.8,8.2z"/>
											<polygon id="Shape_4_" class="st1" points="10.6,2.5 16.3,1.4 16.6,2.8 12.4,3.6 12.8,5.7 16.8,5 17.1,6.4 13.1,7 
												13.5,9.3 17.8,8.6 18.1,9.9 12.2,11 											"/>
											<path id="Shape_5_" class="st1" d="M21,5.2c0-0.7,0-1.3,0.3-1.9c0.2-0.6,0.5-1.1,0.9-1.5c0.4-0.5,0.9-0.8,1.4-1
												c0.6-0.3,1.2-0.4,1.8-0.4s1.3,0,1.8,0.2c0.6,0.2,1.1,0.5,1.5,0.9c0.4,0.4,0.8,0.9,1.1,1.3c0.3,0.6,0.4,1.2,0.5,1.8
												c0,0.7-0.1,1.3-0.3,1.8s-0.5,1.1-0.9,1.4c-0.4,0.4-0.9,0.8-1.4,1c-0.6,0.3-1.2,0.4-1.8,0.5c-0.7,0-1.3,0-1.8-0.2
												C23.5,9,23,8.7,22.6,8.3s-0.8-0.9-1.1-1.3S21,5.9,21,5.2L21,5.2L21,5.2z M22.6,5c0,0.5,0.1,0.9,0.3,1.3s0.4,0.7,0.7,1
												c0.3,0.3,0.6,0.5,1,0.7c0.4,0.2,0.8,0.2,1.3,0.2c0.5,0,0.9-0.1,1.3-0.3s0.7-0.4,0.9-0.7c0.3-0.3,0.4-0.7,0.6-1.1
												c0.1-0.4,0.2-0.9,0.2-1.3c0-0.4-0.1-0.9-0.3-1.2c-0.2-0.4-0.4-0.7-0.7-1s-0.6-0.5-1-0.6S26,1.9,25.5,1.9S24.7,2,24.3,2.2
												s-0.7,0.4-0.9,0.7C23.1,3.2,23,3.6,22.8,4C22.6,4.1,22.5,4.5,22.6,5L22.6,5L22.6,5z"/>
											<path id="Shape_6_" class="st1" d="M34.8,0.5l2.9,0.2c0.4,0,0.8,0.1,1.2,0.2s0.7,0.3,1,0.5c0.3,0.2,0.5,0.5,0.7,0.9
												c0.2,0.3,0.2,0.8,0.2,1.3c0,0.6-0.2,1-0.4,1.3c-0.2,0.3-0.5,0.6-0.8,0.7c-0.3,0.1-0.7,0.3-1.2,0.3H37l-1.1-0.1l-0.3,3.6
												l-1.5-0.1L34.8,0.5L34.8,0.5L34.8,0.5z M36.9,4.4h0.7c0.2,0,0.5,0,0.7-0.1c0.2-0.1,0.4-0.2,0.5-0.3
												c0.1-0.2,0.2-0.4,0.3-0.7c0-0.3,0-0.5-0.1-0.7c-0.1-0.2-0.2-0.3-0.4-0.4c-0.2-0.1-0.4-0.2-0.6-0.2
												c-0.2,0-0.4-0.1-0.7-0.1l-1.1-0.1L36,4.3L36.9,4.4L36.9,4.4L36.9,4.4z"/>
											<polygon id="Shape_7_" class="st1" points="45.4,1.6 46.9,1.9 45.6,9.1 49.2,9.7 49,11.1 43.8,10.1 											"/>
											<polygon id="Shape_8_" class="st1" points="54.6,3.7 60.1,5.3 59.7,6.6 55.7,5.4 55.1,7.4 59,8.6 58.6,9.9 54.7,8.8 
												54.1,11 58.3,12.2 57.9,13.6 52.2,11.9 											"/>
										</g>
										<g id="Group_1_" transform="translate(203.327273, 178.088774)">
											<path id="Shape_9_" class="st2" d="M49.3,0.5l-0.1,3c0,0.4-0.1,0.8-0.2,1.2s-0.2,0.8-0.4,1.1c-0.2,0.3-0.5,0.6-0.8,0.7
												c-0.3,0.2-0.8,0.3-1.3,0.2c-0.7,0-1.2-0.2-1.5-0.6c-0.4-0.4-0.7-0.9-0.8-1.5l-3.9,2.2l0.1-1.8l3.8-1.9V1.7l-3.7-0.1V0.1
												L49.3,0.5L49.3,0.5L49.3,0.5z M45.6,3.1v0.7c0,0.2,0.1,0.4,0.1,0.6c0.1,0.2,0.2,0.4,0.4,0.5C46.3,4.9,46.4,5,46.7,5
												c0.3,0,0.5,0,0.6-0.1c0.2-0.1,0.3-0.2,0.4-0.4c0.1-0.2,0.1-0.4,0.2-0.6c0-0.2,0-0.4,0.1-0.6V2l-2.3-0.1L45.6,3.1
												L45.6,3.1L45.6,3.1z"/>
											<polygon id="Shape_10_" class="st2" points="48.8,11.4 48,17 46.6,16.8 47.2,12.7 45.1,12.4 44.5,16.4 43.2,16.2 
												43.7,12.2 41.4,11.9 40.8,16.3 39.4,16.1 40.3,10.2 											"/>
											<path id="Shape_11_" class="st2" d="M44,25.6c0.3-0.1,0.5-0.3,0.7-0.5c0.2-0.2,0.3-0.5,0.4-0.8c0-0.2,0.1-0.4,0.1-0.5
												c0-0.2,0-0.3-0.1-0.5S45,23.1,44.8,23c-0.1-0.1-0.3-0.2-0.5-0.3c-0.3-0.1-0.5,0-0.8,0.1c-0.2,0.2-0.4,0.4-0.6,0.7
												c-0.2,0.3-0.4,0.6-0.6,0.9c-0.2,0.3-0.4,0.6-0.7,0.9c-0.3,0.3-0.6,0.4-0.9,0.6c-0.4,0.1-0.8,0.1-1.3,0
												c-0.5-0.1-0.9-0.3-1.2-0.6c-0.3-0.3-0.5-0.6-0.7-0.9c-0.2-0.4-0.2-0.7-0.3-1.2c0-0.4,0-0.8,0.1-1.3s0.4-1,0.7-1.4
												c0.3-0.5,0.7-0.8,1.2-1.1l0.8,1.4c-0.3,0.1-0.6,0.3-0.9,0.6c-0.2,0.3-0.4,0.6-0.5,0.9c0,0.2-0.1,0.4-0.1,0.6
												c0,0.2,0,0.4,0.1,0.6c0.1,0.2,0.2,0.3,0.3,0.5c0.1,0.1,0.3,0.2,0.5,0.3c0.3,0.1,0.6,0,0.8-0.1c0.2-0.2,0.4-0.4,0.6-0.7
												c0.2-0.3,0.4-0.6,0.6-0.9c0.2-0.3,0.4-0.6,0.7-0.9c0.3-0.3,0.6-0.4,0.9-0.6c0.4-0.1,0.8-0.1,1.3,0
												c0.5,0.1,0.8,0.3,1.1,0.6c0.3,0.3,0.5,0.6,0.6,0.9c0.1,0.4,0.2,0.7,0.2,1.2c0,0.5,0,0.8-0.1,1.2
												c-0.1,0.5-0.3,0.9-0.6,1.3c-0.3,0.4-0.6,0.7-1,1L44,25.6L44,25.6L44,25.6z"/>
											<path id="Shape_12_" class="st2" d="M40.3,29.8c0.7,0.3,1.2,0.6,1.6,1.1s0.8,0.9,1,1.4c0.2,0.5,0.3,1.1,0.3,1.7
												c0,0.6-0.1,1.3-0.4,1.8c-0.3,0.7-0.6,1.2-1,1.6c-0.4,0.5-0.9,0.8-1.3,1.1c-0.5,0.2-1.1,0.4-1.7,0.4
												c-0.6,0-1.3-0.1-1.9-0.4c-0.7-0.3-1.2-0.6-1.6-1c-0.4-0.4-0.8-0.9-1-1.4c-0.2-0.5-0.3-1.1-0.3-1.7c0-0.6,0.1-1.3,0.4-1.8
												c0.3-0.6,0.6-1.2,1-1.6c0.4-0.5,0.9-0.8,1.3-1c0.5-0.2,1.1-0.4,1.6-0.4C39,29.4,39.6,29.6,40.3,29.8L40.3,29.8L40.3,29.8
												z M39.7,31.3c-0.4-0.2-0.9-0.3-1.3-0.3c-0.4,0-0.8,0.1-1.2,0.2c-0.4,0.1-0.7,0.4-1,0.6c-0.3,0.3-0.5,0.6-0.7,1.1
												c-0.2,0.4-0.3,0.9-0.2,1.3c0,0.4,0.1,0.8,0.3,1.2c0.2,0.4,0.4,0.7,0.7,1c0.3,0.3,0.7,0.5,1.2,0.7
												c0.4,0.2,0.8,0.3,1.3,0.3c0.4,0,0.8-0.1,1.2-0.2c0.4-0.1,0.7-0.4,1-0.7c0.3-0.3,0.5-0.7,0.7-1.1c0.2-0.4,0.3-0.9,0.2-1.3
												c0-0.4-0.1-0.8-0.3-1.2c-0.2-0.4-0.4-0.7-0.7-1C40.5,31.7,40.1,31.5,39.7,31.3L39.7,31.3L39.7,31.3z"/>
											<path id="Shape_13_" class="st2" d="M30.5,47.6c-0.5-0.3-0.9-0.6-1.1-1c-0.3-0.4-0.5-0.8-0.6-1.2c-0.1-0.4-0.1-0.9,0-1.3
												c0.1-0.5,0.2-0.9,0.5-1.3c0.3-0.5,0.6-0.8,0.9-1.1c0.4-0.3,0.8-0.5,1.2-0.7c0.4-0.1,0.9-0.2,1.3-0.1
												c0.5,0.1,0.9,0.2,1.3,0.5l4.8,2.7l-0.8,1.3l-4.7-2.7c-0.2-0.1-0.4-0.2-0.7-0.3c-0.3-0.1-0.5-0.1-0.7,0
												c-0.3,0-0.5,0.1-0.7,0.3c-0.2,0.2-0.5,0.4-0.6,0.7c-0.2,0.3-0.3,0.6-0.3,0.9c0,0.3,0,0.6,0.1,0.8
												c0.1,0.2,0.2,0.4,0.4,0.6c0.2,0.2,0.4,0.3,0.6,0.4l4.7,2.7l-0.8,1.3L30.5,47.6L30.5,47.6L30.5,47.6z"/>
											<path id="Shape_14_" class="st2" d="M32.5,54.6L30.6,57c-0.3,0.3-0.5,0.7-0.8,0.9c-0.3,0.3-0.6,0.5-1,0.6
												c-0.3,0.1-0.7,0.2-1.1,0.1c-0.4,0-0.8-0.2-1.2-0.5c-0.5-0.4-0.9-0.9-1-1.3c-0.1-0.6,0-1.1,0.3-1.6l-4.4-0.4l1.2-1.5
												l4.1,0.6l0.7-0.9l-3-2.2l1-1.3L32.5,54.6L32.5,54.6L32.5,54.6z M27.8,54.6c-0.1,0.2-0.3,0.4-0.4,0.6
												c-0.1,0.2-0.2,0.4-0.3,0.6v0.6c0.1,0.2,0.2,0.4,0.5,0.6c0.2,0.2,0.4,0.2,0.6,0.2c0.2,0,0.4,0,0.5-0.1
												c0.2-0.1,0.3-0.2,0.5-0.4c0.1-0.2,0.3-0.3,0.4-0.5l0.8-1.1l-1.9-1.4L27.8,54.6L27.8,54.6L27.8,54.6z"/>
											<path id="Shape_15_" class="st2" d="M20.1,66.2c0.5,0,0.9-0.1,1.2-0.2c0.3-0.1,0.6-0.3,0.8-0.6c0.3-0.3,0.6-0.7,0.7-1.1
												c0.1-0.4,0.2-0.8,0.2-1.2s-0.1-0.8-0.3-1.2s-0.4-0.7-0.8-1c-0.4-0.3-0.7-0.6-1.1-0.8C20.4,60.1,20,60,19.7,60
												s-0.8,0.1-1.2,0.2c-0.4,0.1-0.7,0.4-1.1,0.7c-0.3,0.3-0.4,0.6-0.5,1c-0.1,0.4-0.1,0.8-0.1,1.3l-1.5,0.3
												c-0.1-0.7-0.1-1.3,0.1-1.8c0.2-0.6,0.6-1.1,1-1.5c0.5-0.5,1-0.9,1.5-1.2c0.6-0.3,1.1-0.4,1.6-0.4c0.6,0,1.2,0.1,1.7,0.3
												c0.6,0.2,1.1,0.6,1.5,1.1c0.5,0.5,0.9,1,1.2,1.5s0.4,1.2,0.4,1.7c0,0.6-0.1,1.2-0.3,1.7c-0.2,0.6-0.6,1.1-1.1,1.5
												c-0.4,0.4-0.9,0.8-1.3,1c-0.5,0.2-1.1,0.3-1.7,0.3L20.1,66.2L20.1,66.2L20.1,66.2z"/>
											<polygon id="Shape_16_" class="st2" points="17.4,71.5 13,75.1 12.1,74.1 15.4,71.4 14.1,69.7 11,72.2 10.1,71.2 
												13.2,68.7 11.7,66.9 8.3,69.6 7.4,68.6 12,64.7 											"/>
											<path id="Shape_17_" class="st2" d="M4.5,78.9C4.8,79,5.1,79,5.4,79c0.3-0.1,0.6-0.2,0.8-0.4c0.2-0.1,0.3-0.2,0.4-0.4
												c0.1-0.1,0.2-0.3,0.3-0.4c0.1-0.2,0.1-0.3,0.1-0.5c0-0.2-0.1-0.3-0.2-0.5c-0.2-0.3-0.4-0.4-0.7-0.4c-0.3,0-0.6,0-0.9,0.1
												c-0.3,0.1-0.7,0.2-1,0.3c-0.4,0.1-0.7,0.2-1.1,0.2S2.5,77,2.1,76.9c-0.4-0.2-0.7-0.5-1-0.9c-0.3-0.4-0.4-0.8-0.5-1.2
												c0-0.4,0-0.8,0.1-1.1c0.1-0.4,0.3-0.7,0.6-1c0.3-0.3,0.6-0.6,1-0.8c0.5-0.3,1-0.5,1.4-0.7c0.5-0.1,1.1-0.1,1.5,0.1
												L4.9,73c-0.3-0.1-0.7-0.2-1-0.2S3.3,73,3,73.2c-0.2,0.1-0.3,0.2-0.4,0.4c-0.1,0.2-0.2,0.3-0.3,0.5
												c-0.1,0.2-0.1,0.3-0.1,0.5c0,0.2,0.1,0.4,0.2,0.5c0.2,0.3,0.4,0.4,0.7,0.5c0.3,0,0.6,0,0.9-0.1c0.3-0.1,0.7-0.2,1.1-0.3
												c0.4-0.1,0.7-0.2,1.1-0.2s0.7,0.1,1.1,0.2c0.4,0.1,0.7,0.4,1,0.9c0.3,0.4,0.4,0.8,0.4,1.2s0,0.8-0.2,1.1
												c-0.1,0.4-0.3,0.7-0.6,1c-0.3,0.3-0.6,0.6-0.9,0.8c-0.4,0.3-0.8,0.5-1.3,0.6c-0.5,0.1-0.9,0.1-1.3,0.1L4.5,78.9L4.5,78.9
												L4.5,78.9z"/>
										</g>
										<g id="Group_2_" transform="translate(64.563637, 181.943079)">
											<polygon id="Shape_18_" class="st3" points="43.2,76.3 38.5,73.1 39.3,72 42.7,74.3 43.9,72.3 40.8,70.2 41.5,69.1 
												44.7,71.2 46.7,68.2 48,69.1 											"/>
											<polygon id="Shape_19_" class="st3" points="35.1,70.4 33.9,69.5 39.4,62.7 40.6,63.7 											"/>
											<polygon id="Shape_20_" class="st3" points="30.1,66.1 28.6,64.6 30.3,57.1 25.6,61.6 24.6,60.6 30.7,54.5 32.1,55.9 
												30.4,63.6 35.1,58.9 36.1,59.9 											"/>
											<path id="Shape_21_" class="st3" d="M19.5,54.3l-0.8-1.1l4.7-8.2l1.1,1.4l-1.1,1.8l2.3,3l2-0.6l1.1,1.3L19.5,54.3
												L19.5,54.3L19.5,54.3z M22.5,49.5l-2,3.2l3.7-1.1L22.5,49.5L22.5,49.5L22.5,49.5z"/>
											<polygon id="Shape_22_" class="st3" points="14.1,46.6 13.1,44.8 16.7,37.9 11.1,41.1 10.3,39.8 17.9,35.5 18.9,37.3 
												15.2,44.3 21,41 21.8,42.4 											"/>
											<path id="Shape_23_" class="st3" d="M7.7,28.8c-0.2,0.4-0.3,0.8-0.3,1.2c0,0.3,0.1,0.6,0.2,0.9c0.2,0.4,0.4,0.8,0.7,1.1
												c0.3,0.3,0.6,0.5,1,0.6c0.4,0.1,0.8,0.2,1.2,0.2c0.4,0,0.8-0.1,1.3-0.3c0.4-0.2,0.8-0.4,1.2-0.7c0.3-0.3,0.6-0.6,0.7-1
												c0.2-0.4,0.3-0.8,0.3-1.2c0-0.4-0.1-0.8-0.2-1.3c-0.1-0.3-0.3-0.6-0.6-0.9c-0.3-0.3-0.7-0.4-1.1-0.6l0.4-1.5
												c0.7,0.2,1.2,0.5,1.6,0.9c0.5,0.4,0.8,1,1.1,1.5c0.3,0.6,0.4,1.3,0.4,1.8s-0.1,1.2-0.3,1.7c-0.2,0.5-0.6,1-1,1.4
												c-0.4,0.4-1,0.8-1.6,1c-0.7,0.3-1.3,0.4-1.9,0.4c-0.6,0-1.2-0.1-1.7-0.4c-0.5-0.2-1-0.6-1.4-1c-0.4-0.5-0.8-1-1-1.6
												c-0.2-0.6-0.3-1.1-0.3-1.6s0.2-1.2,0.5-1.7L7.7,28.8L7.7,28.8L7.7,28.8z"/>
											<polygon id="Shape_24_" class="st3" points="4,24.3 3.6,22.8 11.9,20.4 12.3,21.9 											"/>
											<path id="Shape_25_" class="st3" d="M1.8,15.2l-0.3-1.3l7.8-5.3l0.3,1.7l-1.8,1.2l0.7,3.7l2.1,0.4l0.3,1.7L1.8,15.2
												L1.8,15.2L1.8,15.2z M6.7,12.3l-3.2,1.9l3.8,0.7L6.7,12.3L6.7,12.3L6.7,12.3z"/>
											<polygon id="Shape_26_" class="st3" points="0.5,6.1 0.4,4.5 7.6,3.9 7.3,0.3 8.7,0.2 9.1,5.4 											"/>
										</g>
										<ellipse id="Oval" class="st1" cx="159.3" cy="23" rx="22.5" ry="22.5"/>
										<ellipse id="Oval_1_" class="st2" cx="295.2" cy="261.3" rx="22.5" ry="22.5"/>
										<ellipse id="Oval_2_" class="st3" cx="22.6" cy="260.5" rx="22.5" ry="22.5"/>
										<g id="Group_3_" transform="translate(142.618182, 5.781457)">
											<path id="Shape_27_" class="st4" d="M16.1,35.5c-1,0-1.7-0.7-1.9-1.6L10.4,16c-0.4,0.1-0.8,0.3-1.2,0.4
												c-1.3,0.5-2.5,0.9-3.8,1.3C4.7,18,4,18.2,3.3,18.5c-0.3,0.1-0.5,0.1-0.8,0.1c-0.8,0-1.4-0.4-1.8-1
												c-0.6-0.9-0.5-1.9,0.2-2.7c0.2-0.2,0.5-0.4,0.9-0.6L2.9,14c2.7-1,5.6-2,8.5-2.8c3.3-0.9,6.6-0.8,10.1,0.2
												c2.8,0.8,5.5,1.7,8.2,2.7l0.8,0.3c0.6,0.2,1,0.6,1.3,1.2s0.3,1.2,0.1,1.6c-0.3,0.9-1.2,1.4-2,1.4c-0.3,0-0.5,0-0.8-0.1
												c-1-0.4-2-0.7-3-1.1c-1-0.4-1.9-0.7-3-1.1c-0.4-0.1-0.8-0.3-1.3-0.4v0.1l-3.7,17.8C17.8,34.8,17.1,35.5,16.1,35.5
												L16.1,35.5L16.1,35.5L16.1,35.5z M11.4,14.3l0.2,0.8c0,0.1,0,0.2,0.1,0.2l3.8,18.2c0.1,0.4,0.3,0.7,0.7,0.7v0.7v-0.7
												c0.2,0,0.6-0.1,0.7-0.6l3.7-17.8c0-0.2,0.1-0.4,0.1-0.6l0.2-1l0.7,0.2c0.2,0.1,0.4,0.1,0.7,0.2c0.5,0.1,0.9,0.3,1.3,0.4
												c1,0.4,1.9,0.7,3,1.1c1,0.4,2,0.7,3,1.1c0.5,0.2,1-0.1,1.2-0.6c0.1-0.2,0.1-0.5,0-0.7c-0.1-0.2-0.3-0.4-0.5-0.5L29.2,15
												c-2.6-1-5.3-1.9-8.1-2.7c-3.2-0.9-6.4-1-9.4-0.1C8.9,13,6,14,3.3,14.9l-1.2,0.4c-0.1,0-0.2,0.1-0.4,0.2
												c-0.3,0.3-0.3,0.8-0.1,1.1C1.8,17,2.3,17.1,2.8,17c0.8-0.3,1.4-0.5,2.2-0.8c1.3-0.5,2.5-0.9,3.8-1.3
												c0.4-0.2,0.9-0.3,1.3-0.4c0.2-0.1,0.4-0.1,0.6-0.2H11.4L11.4,14.3L11.4,14.3z"/>
											<path id="Shape_28_" class="st4" d="M16.1,9.9L16.1,9.9c-1.3,0-2.5-0.5-3.5-1.4c-0.9-1-1.4-2.1-1.4-3.5
												c0-2.7,2.2-4.8,4.9-4.8S21,2.3,21,5.1C21,7.8,18.8,9.9,16.1,9.9L16.1,9.9L16.1,9.9z M16.1,1.4c-2,0-3.6,1.6-3.6,3.6
												c0,1,0.4,1.8,1.1,2.5s1.5,1.1,2.5,1.1v0.7V8.7c2,0,3.6-1.5,3.7-3.6C19.7,3.1,18.1,1.4,16.1,1.4L16.1,1.4L16.1,1.4z"/>
										</g>
										<g id="Group_4_" transform="translate(279.454545, 249.566225)">
											<path id="Shape_29_" class="st4" d="M22.4,27l-2.2-2.2c-1.2-1.2-1.2-3.1,0-4.2c0.6-0.6,1.3-0.9,2.1-0.9
												c0.8,0,1.5,0.3,2.1,0.9l2.2,2.2L22.4,27L22.4,27L22.4,27z M22.3,21c-0.5,0-0.9,0.2-1.2,0.5c-0.7,0.7-0.7,1.7,0,2.4
												l1.3,1.3l2.4-2.4l-1.3-1.3C23.1,21.2,22.7,21,22.3,21L22.3,21L22.3,21z"/>
											<path id="Shape_30_" class="st4" d="M6.3,13.2L2.1,9.1c-2-2-2.5-5-1.3-7.6l0.1-0.2l0.2-0.1C1.9,0.8,2.9,0.5,4,0.5
												c1.8,0,3.5,0.7,4.7,1.9l4.1,4.1L6.3,13.2L6.3,13.2L6.3,13.2z M1.9,2.3c-0.9,2-0.4,4.3,1.2,5.9l3.2,3.2L11,6.6L7.8,3.5
												C6.7,2.4,5.4,1.9,4,1.9C3.3,1.8,2.5,2,1.9,2.3L1.9,2.3L1.9,2.3z"/>
											<polygon id="Rectangle-path" class="st4" points="6.9,6.5 20.6,20.5 19.8,21.3 6,7.4 											"/>
										</g>
										<g id="Group_5_" transform="translate(283.309091, 250.529801)">
											<g transform="translate(14.454545, 0.000000)">
												<path id="Shape_31_" class="st4" d="M4.7,13.7v-0.9C4.6,9.9,3.4,7.1,1.3,5.1L0.8,4.6L5.4,0l0.5,0.5
													C8,2.6,10.7,3.8,13.6,4h0.9l-0.3,0.8c-0.6,2-1.7,3.9-3.3,5.4s-3.4,2.6-5.4,3.3L4.7,13.7L4.7,13.7L4.7,13.7z M2.6,4.7
													c1.8,2,3,4.5,3.3,7.3c1.5-0.6,2.9-1.5,4-2.7s2.1-2.6,2.7-4C9.9,5,7.3,3.9,5.3,2L2.6,4.7L2.6,4.7L2.6,4.7z"/>
												<path id="Shape_32_" class="st4" d="M5.2,10.8L4.8,9.5c1.3-0.5,2.5-1.2,3.5-2.1S10,5.3,10.4,4l1.3,0.4
													c-0.5,1.4-1.3,2.8-2.5,4S6.6,10.3,5.2,10.8L5.2,10.8L5.2,10.8z"/>
												<polygon id="Rectangle-path_1_" class="st4" points="9,0.7 9.9,1.6 8.6,3 7.7,2.1 												"/>
											</g>
											<polygon id="Rectangle-path_2_" class="st4" points="17.1,6.8 18,7.7 1.4,24.5 0.5,23.6 											"/>
										</g>
										<g id="Group_6_" transform="translate(6.745455, 243.784768)">
											<g id="Shape_33_" transform="translate(8.500136, 19.271523)">
												<path class="st3" d="M19.7,5.9c0-1.9-3.8-4.1-9.3-4.1S1.2,4,1.2,5.9v1.1v2c0,1.9,3.8,4.1,9.3,4.1s9.3-2.2,9.3-4.1v-2
													V5.9L19.7,5.9L19.7,5.9z"/>
												<path class="st5" d="M20.7,5.9c0-2.8-4.6-5.1-10.3-5.1S0.1,3.1,0.1,5.9V9c0,2.8,4.6,5.1,10.3,5.1S20.7,11.8,20.7,9V5.9
													L20.7,5.9L20.7,5.9z M10.4,1.7c5.5,0,9.3,2.2,9.3,4.1S15.9,10,10.4,10S1.1,7.8,1.1,5.9S5,1.7,10.4,1.7L10.4,1.7
													L10.4,1.7z M5.8,10.4v2c-0.8-0.2-1.4-0.5-2-0.8V9.7C4.4,10,5.1,10.2,5.8,10.4L5.8,10.4L5.8,10.4z M6.8,10.7
													c1,0.2,2,0.3,3.1,0.3v2c-1.2,0-2.1-0.1-3.1-0.3V10.7L6.8,10.7L6.8,10.7z M11,11c1.1,0,2.1-0.1,3.1-0.3v2
													c-1,0.2-2,0.3-3.1,0.3V11L11,11L11,11z M15,10.4c0.8-0.2,1.4-0.4,2-0.7v1.9c-0.6,0.3-1.3,0.6-2,0.8V10.4L15,10.4
													L15,10.4z M1.1,9V8.1c0.4,0.4,1,0.8,1.5,1.2v1.9C1.7,10.4,1.1,9.6,1.1,9L1.1,9L1.1,9z M18.2,11.1V9.2
													c0.6-0.4,1.2-0.8,1.5-1.2v0.9C19.7,9.6,19.2,10.4,18.2,11.1L18.2,11.1L18.2,11.1z"/>
											</g>
											<g id="Shape_34_">
												<path class="st5" d="M10.2,0.5c-5.4,0-9.7,4.3-9.7,9.7s4.3,9.7,9.7,9.7s9.7-4.3,9.7-9.7S15.6,0.5,10.2,0.5L10.2,0.5
													L10.2,0.5z M10.2,19c-4.8,0-8.8-4-8.8-8.8s4-8.8,8.8-8.8s8.8,4,8.8,8.8S15,19,10.2,19L10.2,19L10.2,19z"/>
												<path class="st5" d="M9.6,6.6h1.1c0.9,0,1.5,0.7,1.5,1.5h1.1c0-1.4-1.2-2.6-2.6-2.6V4H9.6v1.5C8.2,5.6,7,6.7,7,8.2
													s1.2,2.6,2.6,2.6h0.5h0.5c0.9,0,1.5,0.7,1.5,1.5c0,0.9-0.7,1.5-1.5,1.5h-1c-0.9,0-1.5-0.7-1.5-1.5H7
													c0,1.4,1.2,2.6,2.6,2.6v1.5h1.1v-1.5c1.4,0,2.6-1.2,2.6-2.6s-1.2-2.6-2.6-2.6h-0.5H9.6c-0.9,0-1.5-0.7-1.5-1.5
													C8.1,7.3,8.9,6.6,9.6,6.6L9.6,6.6L9.6,6.6z"/>
											</g>
											<g id="Shape_35_" transform="translate(12.527273, 12.526490)">
												<path class="st3" d="M19.8,5.4c0-1.9-3.8-4.1-9.3-4.1S1.3,3.5,1.3,5.4v1.1v2c0,1.9,3.8,4.1,9.3,4.1s9.3-2.2,9.3-4.1v-2
													V5.4L19.8,5.4L19.8,5.4z"/>
												<path class="st5" d="M20.8,5.4c0-2.8-4.6-5.1-10.3-5.1S0.2,2.6,0.2,5.4v3.1c0,2.8,4.6,5.1,10.3,5.1s10.3-2.3,10.3-5.1
													V5.4L20.8,5.4L20.8,5.4z M10.5,1.3c5.5,0,9.3,2.2,9.3,4.1S16,9.5,10.5,9.5S1.3,7.3,1.3,5.4S5.1,1.3,10.5,1.3L10.5,1.3
													L10.5,1.3z M5.9,10v2c-0.8-0.2-1.4-0.5-2-0.8V9.3C4.4,9.5,5.1,9.8,5.9,10L5.9,10L5.9,10z M6.9,10.2c1,0.2,2,0.3,3.1,0.3
													v2c-1.2,0-2.1-0.1-3.1-0.3V10.2L6.9,10.2L6.9,10.2z M11,10.5c1.1,0,2.1-0.1,3.1-0.3v2c-1,0.2-2,0.3-3.1,0.3V10.5
													L11,10.5L11,10.5z M15.1,10c0.8-0.2,1.4-0.4,2-0.7v1.9c-0.6,0.3-1.3,0.6-2,0.8V10L15.1,10L15.1,10z M1.3,8.5V7.6
													c0.4,0.4,1,0.8,1.5,1.2v1.9C1.8,10,1.3,9.3,1.3,8.5L1.3,8.5L1.3,8.5z M18.2,10.7V8.8c0.6-0.4,1.2-0.8,1.5-1.2v0.9
													C19.8,9.3,19.2,10,18.2,10.7L18.2,10.7L18.2,10.7z"/>
											</g>
										</g>
									</g>
								</g>
							</g>
						</g>
					</g>
				</g>
			</g>
		</g>
	</g>
</g>
</svg>
